<svg xmlns="http://www.w3.org/2000/svg" xmlns:xlink="http://www.w3.org/1999/xlink" viewBox="0 0 39.19 39.62"><defs><style>.cls-1{fill:none;}.cls-2{clip-path:url(#clip-path);}.cls-3{fill:#fff;}</style><clipPath id="clip-path" transform="translate(0 0)"><rect class="cls-1" width="39.19" height="39.62"/></clipPath></defs><title>Crane</title><g id="Layer_2" data-name="Layer 2"><g id="Layer_1-2" data-name="Layer 1"><g class="cls-2"><path class="cls-3" d="M39.19,39.44c-5.63,0-11.24,0-16.86,0,0-5.74,0-11.52,0-17.27.69,0,1.41,0,2.11,0,0,.64,0,1.25,0,1.9,1.07,0,2.28,0,3.38,0,0-2.12,0-4.33,0-6.5.47,0,.93,0,1.4,0,0,.59,0,1.18,0,1.76.11.08.25,0,.37,0l2.9,0c0-.59,0-1.22,0-1.8.43,0,.89,0,1.35,0,0,.59,0,1.18,0,1.8,1,0,2.15,0,3.19,0,0-.59,0-1.18,0-1.78.71,0,1.38,0,2.08,0,0,0,0,0,0,0v.14a.28.28,0,0,0,0,.25v.14a.3.3,0,0,0,0,.26v.14a.28.28,0,0,0,0,.25v.14a.3.3,0,0,0,0,.26v.14a.28.28,0,0,0,0,.25v.14a.3.3,0,0,0,0,.26v.14a.28.28,0,0,0,0,.25v.14a.3.3,0,0,0,0,.26v.14a.28.28,0,0,0,0,.25v.14a.3.3,0,0,0,0,.26v.14a.28.28,0,0,0,0,.25v.14a.3.3,0,0,0,0,.26v.14a.28.28,0,0,0,0,.25v.14a.3.3,0,0,0,0,.26v.14a.28.28,0,0,0,0,.25v.14a.3.3,0,0,0,0,.26v.14a.28.28,0,0,0,0,.25v.14a.3.3,0,0,0,0,.26v.14a.28.28,0,0,0,0,.25v.14a.3.3,0,0,0,0,.26v.13a.3.3,0,0,0,0,.26V26a.3.3,0,0,0,0,.26v.13a.3.3,0,0,0,0,.26v.14a.3.3,0,0,0,0,.26v.13a.3.3,0,0,0,0,.26v.14a.3.3,0,0,0,0,.26V28a.3.3,0,0,0,0,.26v.14a.3.3,0,0,0,0,.26v.13a.3.3,0,0,0,0,.26v.14a.3.3,0,0,0,0,.26v.13a.3.3,0,0,0,0,.26V30a.28.28,0,0,0,0,.25v.14a.3.3,0,0,0,0,.26v.14a.28.28,0,0,0,0,.25v.14a.3.3,0,0,0,0,.26v.14a.28.28,0,0,0,0,.25V32a.3.3,0,0,0,0,.26v.14a.28.28,0,0,0,0,.25v.14a.3.3,0,0,0,0,.26v.14a.28.28,0,0,0,0,.25v.14a.3.3,0,0,0,0,.26v.14a.28.28,0,0,0,0,.25v.14a.3.3,0,0,0,0,.26v.14a.28.28,0,0,0,0,.25v.14a.3.3,0,0,0,0,.26v.14a.28.28,0,0,0,0,.25v.14a.3.3,0,0,0,0,.26v.14a.28.28,0,0,0,0,.25v.14a.3.3,0,0,0,0,.26v.13a.3.3,0,0,0,0,.26v.14a.3.3,0,0,0,0,.26v.13a.3.3,0,0,0,0,.26v.14a.3.3,0,0,0,0,.26v.13a.3.3,0,0,0,0,.26v.14a.3.3,0,0,0,0,.26Zm-14.77-14c0,1.12,0,2.19,0,3.29,1.12,0,2.25,0,3.38,0,0-1.1,0-2.21,0-3.28-1.16,0-2.24,0-3.4,0m0,9.38c-.08.13,0,.27,0,.41,0,.93,0,1.92,0,2.84h3.4c0-1.11,0-2.18,0-3.27-1.12,0-2.24,0-3.36,0m3.34-1.43c0-1.08,0-2.19,0-3.27-1.13,0-2.21,0-3.34,0a.09.09,0,0,0-.06.06c0,1.09,0,2.16,0,3.23,1.13,0,2.25,0,3.38,0m1.4-3.27c0,1.12,0,2.19,0,3.29,1.1,0,2.17,0,3.29,0,0-1.12,0-2.19,0-3.29-1.1,0-2.17,0-3.29,0m0,8h3.29c0-1.1,0-2.17,0-3.27H29.28l-.06,0c0,1.07,0,2.18,0,3.24m0-9.34c1.08,0,2.19,0,3.27,0,0-1.09,0-2.2,0-3.28-1.11,0-2.18,0-3.29,0,0,1.11,0,2.18,0,3.29m0-4.67c1.1,0,2.17,0,3.27,0,0-1.11,0-2.17,0-3.28-1.11,0-2.18,0-3.27,0,0,1.09,0,2.16,0,3.28m4.66-3.28c0,1.11,0,2.18,0,3.3,1.06,0,2.12,0,3.21,0,0-1.12,0-2.19,0-3.3-1.07,0-2.13,0-3.21,0m0,4.72c0,1.09,0,2.15,0,3.23h3.21c0-1.1,0-2.17,0-3.29-1,0-2.1,0-3.17,0,0,0,0,0,0,.06m0,9.32c0,.94,0,1.89,0,2.82,0,.14-.06.29,0,.43,1.07,0,2.17,0,3.17,0,0-1.05,0-2.16,0-3.23-1,0-2.11,0-3.17,0m0-4.68c0,1.08,0,2.19,0,3.27,1.08,0,2.14,0,3.21,0,0-1.08,0-2.15,0-3.25-.14-.08-.29,0-.45,0-.86,0-1.92,0-2.74,0" transform="translate(0 0)"/><path class="cls-3" d="M27.42,11.19a1,1,0,0,0-.27-.09s0,0,0-.06a2.69,2.69,0,0,1-.62-.34c-.34.25-.56.27-.92.51.62,0,1.21,0,1.81,0m1.09,3c-1.31,0-2.68,0-4,0q0-1.35,0-2.76h0v0c.29-.16.58-.33.85-.51.08,0,0,0,.06,0l.85-.52s0,0,0,0,0-.1,0-.13,0-.25,0-.38c0-1,0-2.21,0-3.26.08,0,.17,0,.27,0,0,1.24,0,2.48,0,3.71,0,.09.16.12.26.16s.27.1.33.22.29.18.42.2.17.14.27.13,0,0,.06.08.12.06.2.06a.39.39,0,0,0,.3.16c0,.88,0,1.89,0,2.8" transform="translate(0 0)"/><path class="cls-3" d="M9.67,39.62a.36.36,0,0,0-.25,0H9.28a.39.39,0,0,0-.26,0H8.88a.36.36,0,0,0-.25,0H8.49a.39.39,0,0,0-.26,0H8.09a.36.36,0,0,0-.25,0H7.7a.39.39,0,0,0-.26,0H7.3a.36.36,0,0,0-.25,0H6.91a.39.39,0,0,0-.26,0H6.52a.39.39,0,0,0-.26,0H6.12a.39.39,0,0,0-.26,0H5.73a.39.39,0,0,0-.26,0H5.33a.39.39,0,0,0-.26,0H4.94a.39.39,0,0,0-.26,0H4.54a.39.39,0,0,0-.26,0H4.15c0-1,0-2,0-3a3.43,3.43,0,0,0,.63-.33c.1-.05,0,0,.08,0a5.76,5.76,0,0,0,.69-.38c.1,0,0,0,.08,0a5,5,0,0,0,.69-.37,2.38,2.38,0,0,0,.77-.38c.3,0,.62,0,.93,0Q8,20.77,8,6.34c-2.63,0-5.36,0-8,0v-.1A.39.39,0,0,0,0,6V5.84a.36.36,0,0,0,0-.25V5.45a.39.39,0,0,0,0-.26V5.07a2,2,0,0,1,.26-.45.92.92,0,0,1,.51-.26c.18,0,.39,0,.59,0l.59,0c.08,0,.16,0,.24,0a1,1,0,0,0,.28-.17c.1-.08.19-.13.27-.2s-.07,0,0,.06c.34-.23.69-.43,1-.67.07,0-.07.05,0,.06l1-.64c.07,0,0,.05.08,0l.93-.61c.07,0,0,0,.07,0,.32-.21.65-.41,1-.63.07,0-.07,0,0,.06l1-.63c.08,0,0,0,.08,0A.92.92,0,0,0,8,.83,3.13,3.13,0,0,1,8,0c.05,0,.15,0,.17,0h.14a.39.39,0,0,0,.26,0h.14A.36.36,0,0,0,9,0h.14A.39.39,0,0,0,9.4,0h.14a.36.36,0,0,0,.25,0h.14a.39.39,0,0,0,.26,0h.14a.36.36,0,0,0,.25,0h.06c-.05.17,0,.38,0,.53a5.34,5.34,0,0,0,.53.16l.12.06c.06,0,.13,0,.18,0s.1.06.16.08.12,0,.18,0,0,0,.08.06.14,0,.21,0,.07.06.12.08a1.1,1.1,0,0,1,.18,0,1.47,1.47,0,0,0,.22.1s0,0,.07,0,.09.06.14.07a.88.88,0,0,0,.16,0c.06,0,.1.07.16.08a1.1,1.1,0,0,0,.18,0s0,.05.07.06.15,0,.22,0,.09.07.14.08a.88.88,0,0,0,.16,0c.31.09.6.22.91.28A5.08,5.08,0,0,0,15.4,2l.14,0a1.23,1.23,0,0,0,.19,0l.12.08a.88.88,0,0,0,.16,0c.06,0,.11.07.16.08s.11,0,.16,0,.05.06.11.08a1,1,0,0,0,.16,0,.88.88,0,0,0,.36.1c.06,0,0,0,.08.06.55.11.94.29,1.44.39.06,0,0,0,.08.06.55.11.94.29,1.42.4a5.61,5.61,0,0,0,.93.25c.05.1.17.07.27.1s.18.12.32.08a.47.47,0,0,0,.14.08c.18,0,.31.13.49.12s0,0,.08.06.35.13.51.12a.46.46,0,0,0,.3.08c.07.09.17.06.3.09s.13.08.17.08a3.7,3.7,0,0,0,.56,0c1.35,0,3,0,4.34,0l.2,0h.15c.06,0,.11.06.16.08s.1,0,.14.06.12.14.22.18.06.22.12.24a12.48,12.48,0,0,1,0,1.38c-6.25,0-12.5,0-18.74,0-.08.13,0,.26,0,.39,0,9.45-.05,19,0,28.45.37,0,.8-.06,1.09.1,0,0,.06.06.1.08l.13,0c.06,0,.09.07.14.1s.1,0,.14,0,.07.07.12.09l.12,0,.14.08c.05,0,.11,0,.15,0s.09.08.14.1l.26.12.14,0s.08.1.13.12.1,0,.14,0,.05.06.08.08l.24.1a.43.43,0,0,0,.12,0l.1,0a.81.81,0,0,0,.09.1c.11.06.21,0,.3.12,0,1,0,2,0,3h-.12a.39.39,0,0,0-.26,0H14a.39.39,0,0,0-.26,0h-.14a.36.36,0,0,0-.25,0h-.14a.39.39,0,0,0-.26,0h-.14a.36.36,0,0,0-.25,0h-.14a.39.39,0,0,0-.26,0H12a.36.36,0,0,0-.25,0h-.14a.39.39,0,0,0-.26,0h-.14a.36.36,0,0,0-.25,0h-.14a.39.39,0,0,0-.26,0h-.14a.36.36,0,0,0-.25,0h-.14a.39.39,0,0,0-.26,0Zm1-38.47s0,0,0,0c0,.69,0,1.45,0,2.15a9,9,0,0,1,1.28,0,9.37,9.37,0,0,1,0,1.06c3.23,0,6.45,0,9.64,0-.31,0-.55-.18-.85-.21,0-.09-.32-.06-.4-.16s-.11,0-.21,0-.15-.09-.28-.08-.21-.09-.31-.1a.31.31,0,0,0-.28-.08c-.08-.1-.21-.06-.32-.1s-.08-.06-.14-.08a1.23,1.23,0,0,1-.19,0s0,0-.06,0c-.57-.11-.95-.31-1.46-.4C17,3,17,3,17,3c-.57-.1-.95-.3-1.46-.39,0,0-.15-.09-.28-.08a.48.48,0,0,0-.33-.1c0-.05-.15-.09-.28-.08s-.21-.09-.32-.1A.3.3,0,0,0,14,2.17a.53.53,0,0,0-.32-.1.62.62,0,0,0-.34-.1s0,0-.05-.05c-.57-.11-.95-.31-1.46-.4,0-.09-.32-.06-.4-.16a1.12,1.12,0,0,1-.2,0A.37.37,0,0,0,11,1.26c-.08-.1-.24-.06-.34-.11m-7,3c-.12.08-.26.14-.37.23,1.16,0,2.29,0,3.45,0,0-.36,0-.74,0-1.06.42,0,.82,0,1.25,0,0-.6,0-1.18,0-1.76-.1.05-.24.18-.32.18s0,0,0,0c-.33.2-.65.41-1,.63,0,0,0-.06,0,0-.34.19-.65.43-1,.63,0,0,.07,0,0-.06l-1,.65s0-.06,0,0c-.33.2-.66.42-1,.64,0,0,0-.06,0,0" transform="translate(0 0)"/><path class="cls-3" d="M0,9.79a.36.36,0,0,0,0-.25V9.4a.39.39,0,0,0,0-.26V9a.36.36,0,0,0,0-.25V8.61a.39.39,0,0,0,0-.26V8.21A.36.36,0,0,0,0,8V7.82a.39.39,0,0,0,0-.26V7.42a.36.36,0,0,0,0-.25V7c.05,0,0-.11,0-.16,1.55,0,3.07,0,4.62,0,0,1,0,2,0,3-1.56,0-3.08,0-4.62,0Z" transform="translate(0 0)"/></g></g></g></svg>