<svg xmlns="http://www.w3.org/2000/svg" xmlns:xlink="http://www.w3.org/1999/xlink" viewBox="0 0 50.4 41.14"><defs><style>.cls-1{fill:none;}.cls-2{clip-path:url(#clip-path);}.cls-3{fill:#fff;}</style><clipPath id="clip-path" transform="translate(0)"><rect class="cls-1" width="50.4" height="41.14"/></clipPath></defs><title>House</title><g id="Layer_2" data-name="Layer 2"><g id="Layer_1-2" data-name="Layer 1"><g class="cls-2"><path class="cls-3" d="M50.4,21.25v1.21c-3.81-.05-7.84.11-11.51-.08V21.25Z" transform="translate(0)"/><path class="cls-3" d="M46.21,32.12H42v4.11c1.21.18,2.76,0,4.1.08a41.1,41.1,0,0,0,.08-4.19m0-2V26H42v4.19a40.84,40.84,0,0,0,4.18-.08m3.14,8.78a12.68,12.68,0,0,1,0,2.17,14.65,14.65,0,0,1-2.57,0c-2.73,0-5.42-.06-7.73.08H39c-.19-5.58,0-11.51-.08-17.23C42.35,24,46,23.8,49.35,24Z" transform="translate(0)"/><path class="cls-3" d="M41.06,10.55l-.12.09,0,.15c-1-.2-2.09.25-3.22,0a8,8,0,0,1-1.61-1C33.48,8,31.25,6.44,28.5,4.59c-.43-.29-1.06-.59-1.61-1s-1.1-.94-1.61-1-1.14.46-1.77.88C19.87,6,16.28,8.43,12.72,10.79H9.42l0-.15-.12-.09C14.61,7,19.88,3.48,25.2,0q8,5.21,15.86,10.55" transform="translate(0)"/><path class="cls-3" d="M16.91,17.79h4.18A40.84,40.84,0,0,0,21,13.61c-1.32.09-3-.21-4.1.16ZM21.09,24V19.81h-4a.21.21,0,0,0-.16.24A36.25,36.25,0,0,0,17,24Zm0,6.2V26h-4a.23.23,0,0,0-.16.25A36.3,36.3,0,0,0,17,30.19ZM27.29,26H23.11v4.11a39.34,39.34,0,0,0,4.1.08A41,41,0,0,0,27.29,26m0-8.21v-4.1a37.75,37.75,0,0,0-4-.08.21.21,0,0,0-.16.24v3.94Zm0,6.2V19.81h-4a.21.21,0,0,0-.16.24V24Zm6.12,6.2a21,21,0,0,0,0-4.19h-4.1a41,41,0,0,0,.08,4.19Zm.08-12.4v-4.1a37.81,37.81,0,0,0-4-.08.21.21,0,0,0-.16.24v3.94Zm0,6.2v-4.1a40.84,40.84,0,0,0-4.18-.08V24Zm3.38-11.91a16.73,16.73,0,0,1,0,3.62V41.06c-2.65,0-5.53-.11-8,.08h-.08c-.18-3,0-6.41-.08-9.58-2.12-.19-4.59,0-6.84-.08-.19,3,0,6.41-.08,9.58-.09,0-.15,0-.16.08H21.5c-1.87-.14-3.77-.08-6-.08a7.93,7.93,0,0,1-2,0c0-.05,0-1.19,0-1.77V11.92c2-1.3,3.91-2.56,5.87-3.87s3.82-2.71,5.88-3.86C28.72,6.43,31.92,8.67,35.42,11c.54.36,1.32.67,1.45,1.05" transform="translate(0)"/><path class="cls-3" d="M11.51,21.34v1.12H0v-1.2c3.81,0,7.84-.11,11.51.08" transform="translate(0)"/><path class="cls-3" d="M8.37,32.12H4.19v4.11c1.21.18,2.76,0,4.1.08a41.1,41.1,0,0,0,.08-4.19m0-1.93V26H4.19a41,41,0,0,0,.08,4.19ZM1.05,23.91H11.51c0,5.72.11,11.65-.08,17.23h-.08C9,41,6.22,41.06,3.62,41.06A10.47,10.47,0,0,1,1.05,41a11.81,11.81,0,0,1,0-2.09Z" transform="translate(0)"/></g></g></g></svg>