<svg xmlns="http://www.w3.org/2000/svg" xmlns:xlink="http://www.w3.org/1999/xlink" viewBox="0 0 41.76 32.93"><defs><style>.cls-1{fill:none;}.cls-2{clip-path:url(#clip-path);}.cls-3{fill:#fff;}</style><clipPath id="clip-path" transform="translate(0 0)"><rect class="cls-1" width="41.76" height="32.93"/></clipPath></defs><title>group of people</title><g id="Layer_2" data-name="Layer 2"><g id="Layer_1-2" data-name="Layer 1"><g class="cls-2"><path class="cls-3" d="M40.91,13.3a1.44,1.44,0,0,0-1.5-1.43H35.63a3.41,3.41,0,0,1,.29,1.24l.83,5.64,0,.15v.17a3.75,3.75,0,0,1-2.14,3.38l0,.49.91,9.14a.87.87,0,0,0,.92.85h1.31a.86.86,0,0,0,.91-.85L39.79,20.6h.47a1.53,1.53,0,0,0,1.5-1.53Z" transform="translate(0 0)"/><path class="cls-3" d="M37.07,10.87a2.51,2.51,0,1,0-2.51-2.51,2.51,2.51,0,0,0,2.51,2.51" transform="translate(0 0)"/><path class="cls-3" d="M5,19.07V18.9l0-.15.83-5.64a3.62,3.62,0,0,1,.28-1.24H2.35A1.44,1.44,0,0,0,.85,13.3L0,19.07A1.53,1.53,0,0,0,1.5,20.6H2L3.12,32.08a.86.86,0,0,0,.91.85H5.34a.87.87,0,0,0,.92-.85L7.17,23l0-.5A3.75,3.75,0,0,1,5,19.07" transform="translate(0 0)"/><path class="cls-3" d="M32.23,11.87H27.55a1.67,1.67,0,0,0-.83.23,3.7,3.7,0,0,1,.2,1l.83,5.64,0,.16v.16A3.73,3.73,0,0,1,27.21,21l1.11,11.06a.87.87,0,0,0,.92.85h1.31a.86.86,0,0,0,.91-.85L32.62,20.6h.46a1.53,1.53,0,0,0,1.5-1.53l-.85-5.77a1.44,1.44,0,0,0-1.5-1.43" transform="translate(0 0)"/><path class="cls-3" d="M29.89,10.87a2.52,2.52,0,1,0-2.13-1.19,2.51,2.51,0,0,0,2.13,1.19" transform="translate(0 0)"/><path class="cls-3" d="M20.9,4.06a.51.51,0,0,0,.51-.51v-3A.51.51,0,0,0,20.9,0a.5.5,0,0,0-.5.51v3a.5.5,0,0,0,.5.51" transform="translate(0 0)"/><path class="cls-3" d="M25.73,1.59a.51.51,0,0,0-.7.19L23.51,4.41a.51.51,0,0,0,.18.7.63.63,0,0,0,.26.07.53.53,0,0,0,.44-.26l1.52-2.64a.51.51,0,0,0-.18-.69" transform="translate(0 0)"/><path class="cls-3" d="M15.9,2.28l.38.66,1.14,2a.5.5,0,0,0,.19.19.47.47,0,0,0,.2.06h.05a.55.55,0,0,0,.25-.07.52.52,0,0,0,.19-.7L16.77,1.78a.53.53,0,0,0-.4-.26.59.59,0,0,0-.29.07.52.52,0,0,0-.23.58.22.22,0,0,0,.05.11" transform="translate(0 0)"/><path class="cls-3" d="M4.69,5.85A2.51,2.51,0,1,1,2.17,8.36,2.51,2.51,0,0,1,4.69,5.85" transform="translate(0 0)"/><path class="cls-3" d="M12.24,11.87H9.52A1.44,1.44,0,0,0,8,13.3l-.85,5.77a1.53,1.53,0,0,0,1.5,1.53h.46l1.15,11.48a.87.87,0,0,0,.92.85h1.31a.86.86,0,0,0,.91-.85L14.59,20.6h.46a1.47,1.47,0,0,0,.85-.28l-.26-1.73Z" transform="translate(0 0)"/><path class="cls-3" d="M11.73,10.86l-.06-.12a3.46,3.46,0,0,1,1.4-4.59,2.58,2.58,0,0,0-1.21-.3,2.51,2.51,0,0,0-.13,5" transform="translate(0 0)"/><path class="cls-3" d="M23.23,11.87H18.55a1.6,1.6,0,0,0-.79.21L16,8.56A1.26,1.26,0,0,0,14.27,8l-.08,0a1.27,1.27,0,0,0-.56,1.71l4,7.85a1.18,1.18,0,0,0,.14.22l.43,2.78,1.15,11.48a.86.86,0,0,0,.91.85h1.31a.87.87,0,0,0,.92-.85L23.61,20.6h.47a1.53,1.53,0,0,0,1.49-1.53l-.85-5.77a1.43,1.43,0,0,0-1.49-1.43" transform="translate(0 0)"/><path class="cls-3" d="M20.89,10.87a2.51,2.51,0,1,0-2.51-2.51v.09a2.51,2.51,0,0,0,2.51,2.42" transform="translate(0 0)"/></g></g></g></svg>