<svg xmlns="http://www.w3.org/2000/svg" xmlns:xlink="http://www.w3.org/1999/xlink" viewBox="0 0 48.36 23.94"><defs><style>.cls-1{fill:none;}.cls-2{clip-path:url(#clip-path);}.cls-3{fill:#fff;}</style><clipPath id="clip-path" transform="translate(0 0)"><rect class="cls-1" width="48.36" height="23.94"/></clipPath></defs><title>people holding hands</title><g id="Layer_2" data-name="Layer 2"><g id="Layer_1-2" data-name="Layer 1"><g class="cls-2"><path class="cls-3" d="M48.3,2c.45,3-1.72,5.46-3.58,7.08a18.12,18.12,0,0,1-5.11,2.78v9.85H30.15V16.18c-2.23.48-2.46,5.13-3.57,7.58a14.2,14.2,0,0,1-4.6,0c-1.29-2.52-1.1-6.5-3.58-7.84v5.81H8.94v-9.6C5,9.9.8,7.89,0,2.53,2.19.08,3.06,2.25,4.6,4.3A13.57,13.57,0,0,0,7.16,7.08c2.41,1.76,5.43,1.61,8.17,2.53C19.27,10.92,22.85,14,24,17.94c2.09-4.3,5.75-7.41,11.5-8.84C39.1,8.2,42.07,7,44,4.55,45.54,2.48,45.22.39,48.3,2" transform="translate(0 0)"/><path class="cls-3" d="M34.5,0c2.38-.08,4.79,1.82,4.09,5.56-1.93,4.51-9.76,1.92-7.67-3.28A4.4,4.4,0,0,1,34.5,0" transform="translate(0 0)"/><path class="cls-3" d="M13.54,0c2.39-.08,4.79,1.82,4.09,5.56C15.71,10.07,7.88,7.48,10,2.28A4.4,4.4,0,0,1,13.54,0" transform="translate(0 0)"/></g></g></g></svg>