<svg xmlns="http://www.w3.org/2000/svg" xmlns:xlink="http://www.w3.org/1999/xlink" viewBox="0 0 27.7 27.39"><defs><style>.cls-1{fill:none;}.cls-2{clip-path:url(#clip-path);}.cls-3{fill:#fff;}</style><clipPath id="clip-path"><rect class="cls-1" width="27.7" height="27.39"/></clipPath></defs><title>tomato and jar</title><g id="Layer_2" data-name="Layer 2"><g id="Layer_1-2" data-name="Layer 1"><g class="cls-2"><path class="cls-3" d="M23.08,3.41V2.3H18.5s0,0,0,0V3.41c1.5,0,3.11,0,4.61,0m4.62,8.65V24.3a3.43,3.43,0,0,1-3.13,3.09h-7.5a3.37,3.37,0,0,1-1.73-.67c.16-.14.33-.24.5-.37a8.13,8.13,0,0,0,.95-.81c.11-.09.32-.4.44-.45a5.15,5.15,0,0,1,.88,0h4.47a17.41,17.41,0,0,0,1.77,0,1.13,1.13,0,0,0,1-.88,6.74,6.74,0,0,0,0-1.28V19c0-2.19.06-4.4,0-6.56a7,7,0,0,0-.17-1.14,16.63,16.63,0,0,0-.61-2,16.33,16.33,0,0,0-.78-1.87,6.67,6.67,0,0,0-1-1.64H19.28a3,3,0,0,0-.52,0c-.15,0-.28.29-.38.44a18.77,18.77,0,0,0-1.74,4,16,16,0,0,1-2.44.1,16.94,16.94,0,0,1,2.35-5.5,2.32,2.32,0,0,1-.39-1.37,8,8,0,0,1,.06-1.72A2.23,2.23,0,0,1,18.16,0h5.23a2.29,2.29,0,0,1,1.95,1.64,8.72,8.72,0,0,1,.05,1.71A2.42,2.42,0,0,1,25,4.74,17.17,17.17,0,0,1,26.66,8.1a16.05,16.05,0,0,1,1,4"/><path class="cls-3" d="M18.24,15.61a11.38,11.38,0,0,1-.39,6,8.34,8.34,0,0,1-2.9,4A9.73,9.73,0,0,1,9.8,27.39H8.69a9.4,9.4,0,0,1-5.91-2.55A8.65,8.65,0,0,1,0,19.2V18c.19-3.48,1.72-5.63,4.75-6.29,0,.64.43.87.91,1A2.62,2.62,0,0,1,4.6,13.85a9,9,0,0,1-1.47.67,1.64,1.64,0,0,0,.74,1,3.17,3.17,0,0,0,1.22.56,4.7,4.7,0,0,0,3-.37,7.37,7.37,0,0,0,.85,1.81,2.91,2.91,0,0,0,1.66,1c.85-.57,1-1.78,1.07-3.15,0-.08.07,0,.08,0l.1.1a2.54,2.54,0,0,0,2.93-.06,2.7,2.7,0,0,0,.8-1.57c-.9.1-1.34-.51-2.07-.7a6.13,6.13,0,0,0,.73-.35,1.27,1.27,0,0,0,.64-.82,4.86,4.86,0,0,1,3.37,3.53"/><path class="cls-3" d="M13.14,11.53a2.75,2.75,0,0,0,1.3-.23c-.4.67-.78,1.53-1.8,1.6-.32,0-.66-.07-1.05-.07a2.89,2.89,0,0,1,1.51.85,3.27,3.27,0,0,0,1.44.93,2.34,2.34,0,0,1-1.57.44,3.25,3.25,0,0,1-1.77-.83,9.3,9.3,0,0,1-1.32-1.35,7.68,7.68,0,0,1,.75,2,5.75,5.75,0,0,1-.23,2.47A3.25,3.25,0,0,1,9,15.78a5.32,5.32,0,0,1-.11-2.65,2.94,2.94,0,0,1-2.45,2.09,4.24,4.24,0,0,1-2-.38A2.9,2.9,0,0,0,6,13.58a2.4,2.4,0,0,1,2.41-1,2.21,2.21,0,0,0-.82-.21,3.05,3.05,0,0,1-2.16-.86A2.51,2.51,0,0,1,5,10H5l0,0a1.69,1.69,0,0,0,.39.53c.47.37,1.44.2,2.12.4A2.41,2.41,0,0,1,8.9,12a8.66,8.66,0,0,1,1.73-2.78,1.28,1.28,0,0,1,.8.11,4.75,4.75,0,0,0-.95,1.25A4.46,4.46,0,0,0,10,12.23a3.51,3.51,0,0,0,.4-.27,2.47,2.47,0,0,1,1.53-.59,11.56,11.56,0,0,1,1.25.16"/></g></g></g></svg>