<svg xmlns="http://www.w3.org/2000/svg" xmlns:xlink="http://www.w3.org/1999/xlink" viewBox="0 0 31.6 35.19"><defs><style>.cls-1{fill:none;}.cls-2{clip-path:url(#clip-path);}.cls-3{fill:#fff;}</style><clipPath id="clip-path" transform="translate(0 0)"><rect class="cls-1" width="31.6" height="35.19"/></clipPath></defs><title>old and young people</title><g id="Layer_2" data-name="Layer 2"><g id="Layer_1-2" data-name="Layer 1"><g class="cls-2"><path class="cls-3" d="M23.42,3.58A3.58,3.58,0,1,1,19.85,0a3.57,3.57,0,0,1,3.57,3.58" transform="translate(0 0)"/><path class="cls-3" d="M27.22,13.7a6.3,6.3,0,0,0-2.76-4.27s-.36-.36-.52.17v3l.71,20.95a1.47,1.47,0,0,1-1.56,1.56,2.2,2.2,0,0,1-2-2c-.08-2.69-.72-11.78-.75-12.26s-.26-1.23-.69-1.15-.72.26-.77,1.51-.78,12-.78,12a2,2,0,0,1-1.81,1.9,1.73,1.73,0,0,1-1.85-1.57s.22-8.23.48-11.13.58-10.44.48-11.26c0,0-.36-.09-1.15,1.59a16.75,16.75,0,0,1-2.16,4.94,3.72,3.72,0,0,1-3.43,2.38V33.53s.19,1.56-1.23,1.56-1.27-1.47-1.27-2.33,0-5.16,0-5.16a.25.25,0,0,0-.46.07l-.1,6.39s-.36,1-1.1,1a1.22,1.22,0,0,1-1.32-1.27c0-.87.17-12.67.17-12.67a1,1,0,0,0-.55.43A15.79,15.79,0,0,0,1.9,26.3.85.85,0,0,1,1,27c-.77,0-1.27-1-.86-2.86S1.23,19,3.27,18.29a8.7,8.7,0,0,1,2.11,0c1,.14,3.31.17,4-.34a10.67,10.67,0,0,1,1.3-.93A5.81,5.81,0,0,1,11,14.59s2-6.26,4.25-7.82c1.63-1.12,2.5,1.12,4.54,1.1,2.27,0,2.8-2.11,3.6-1.44a7.9,7.9,0,0,1,6.12,7,2.69,2.69,0,0,1,2,2.26c.24,1.87,0,18.55,0,18.55a.88.88,0,0,1-.74.68c-.6,0-.77-.27-.8-.68s0-18.09,0-18.09,0-.58-.33-.63c0,0-.15,1.18-1,1.13a1.09,1.09,0,0,1-1.08-1s-.65-.14-.58,1.18a.7.7,0,0,1-1,.43c-.69-.31-.36-2.19.05-2.71s1.2-.77,1.18-.92" transform="translate(0 0)"/><path class="cls-3" d="M8.47,14.76A2.57,2.57,0,1,1,5.9,12.19a2.57,2.57,0,0,1,2.57,2.57" transform="translate(0 0)"/></g></g></g></svg>