<svg xmlns="http://www.w3.org/2000/svg" xmlns:xlink="http://www.w3.org/1999/xlink" viewBox="0 0 299.36 161.89"><defs><style>.cls-1{fill:none;}.cls-2{clip-path:url(#clip-path);}.cls-3{fill:#323232;}.cls-4{fill:#25408f;}.cls-5{fill:#cf4248;}.cls-6{fill:#00aeef;}.cls-7{fill:#f3bd3b;}</style><clipPath id="clip-path" transform="translate(0)"><rect class="cls-1" width="299.36" height="161.89"/></clipPath></defs><title>Bar Graph</title><g id="Layer_2" data-name="Layer 2"><g id="Layer_1-2" data-name="Layer 1"><g class="cls-2"><rect class="cls-3" y="159.83" width="299.36" height="2"/></g><rect class="cls-4" x="225.04" y="1" width="65.01" height="159.89"/><g class="cls-2"><path class="cls-3" d="M291,161.89H224V0h67Zm-65-2h63V2H226Z" transform="translate(0)"/></g><rect class="cls-5" x="153.36" y="145.19" width="65.01" height="15.7"/><g class="cls-2"><path class="cls-3" d="M219.36,161.89h-67v-17.7h67Zm-65-2h63v-13.7h-63Z" transform="translate(0)"/></g><rect class="cls-6" x="81.68" y="150.98" width="65.01" height="9.9"/><g class="cls-2"><path class="cls-3" d="M147.69,161.89h-67V150h67Zm-65-2h63V152h-63Z" transform="translate(0)"/></g><rect class="cls-7" x="10" y="156.36" width="65.01" height="4.53"/><g class="cls-2"><path class="cls-3" d="M76,161.89H9v-6.53H76Zm-65-2H74v-2.53H11Z" transform="translate(0)"/></g></g></g></svg>