<svg xmlns="http://www.w3.org/2000/svg" xmlns:xlink="http://www.w3.org/1999/xlink" viewBox="0 0 269.1 128.48"><defs><style>.cls-1{fill:none;}.cls-2{fill:#fff;}.cls-3{clip-path:url(#clip-path);}</style><clipPath id="clip-path" transform="translate(-8.96 -10.04)"><rect class="cls-1" width="288.78" height="138.51"/></clipPath></defs><title>Bar Graph Overlay Text</title><g id="Layer_2" data-name="Layer 2"><g id="Layer_1-2" data-name="Layer 1"><path class="cls-2" d="M13.22,13.5a1.53,1.53,0,0,0,.32-.87,1,1,0,0,0-.28-.7.94.94,0,0,0-.71-.29c-.53,0-1,.38-1.5,1.13l-1.5-.89a4.79,4.79,0,0,1,1.29-1.38A3.2,3.2,0,0,1,12.63,10a2.9,2.9,0,0,1,1.91.69,2.3,2.3,0,0,1,.82,1.87A2.54,2.54,0,0,1,15,13.85a8.23,8.23,0,0,1-1.22,1.51L12.3,16.94h3.31v1.68H9.7v-1.4l2.46-2.52A10.78,10.78,0,0,0,13.22,13.5Z" transform="translate(-8.96 -10.04)"/><path class="cls-2" d="M17.24,18.41a1,1,0,0,1-.31-.75A1.06,1.06,0,0,1,18,16.6,1,1,0,0,1,19,17.66,1,1,0,0,1,18,18.71,1,1,0,0,1,17.24,18.41Z" transform="translate(-8.96 -10.04)"/><path class="cls-2" d="M23.52,15V13.53h1.8V15h.95v1.62h-.95v2h-1.8v-2H20.15V15.18l3-4.95h2L22.33,15Z" transform="translate(-8.96 -10.04)"/><path class="cls-2" d="M31.08,12.12a1.62,1.62,0,0,1-.5,1.2,1.78,1.78,0,0,1-1.27.48A1.74,1.74,0,0,1,28,13.31a1.62,1.62,0,0,1-.5-1.19,1.64,1.64,0,0,1,.5-1.2,1.89,1.89,0,0,1,2.54,0A1.64,1.64,0,0,1,31.08,12.12Zm4.61-1.89-6,8.39H27.61l6-8.39ZM29,12.55a.43.43,0,0,0,.35.16.44.44,0,0,0,.36-.16.61.61,0,0,0,.15-.43.63.63,0,0,0-.15-.43.43.43,0,0,0-.7,0,.63.63,0,0,0-.15.43A.65.65,0,0,0,29,12.55ZM35.81,17a1.61,1.61,0,0,1-.51,1.2,1.89,1.89,0,0,1-2.53,0,1.68,1.68,0,0,1,0-2.39A1.74,1.74,0,0,1,34,15.34a1.7,1.7,0,0,1,1.26.49A1.61,1.61,0,0,1,35.81,17Zm-2.13.43a.43.43,0,0,0,.35.16.44.44,0,0,0,.36-.16.61.61,0,0,0,.15-.43.67.67,0,0,0-.15-.44.44.44,0,0,0-.35-.17.48.48,0,0,0-.36.17.72.72,0,0,0-.14.44A.65.65,0,0,0,33.68,17.46Z" transform="translate(-8.96 -10.04)"/><path class="cls-2" d="M13.67,28.62l-.52-1.21H10.81l-.52,1.21H9L11.38,23h1.2L15,28.62ZM12,24.69l-.7,1.62h1.4Z" transform="translate(-8.96 -10.04)"/><path class="cls-2" d="M18.1,28.62H15.65V23h2.17a3.12,3.12,0,0,1,1,.14,1.28,1.28,0,0,1,.62.37,1.45,1.45,0,0,1,.38,1,1.15,1.15,0,0,1-.42,1l-.2.14-.2.09a1.47,1.47,0,0,1,.82.47,1.28,1.28,0,0,1,.31.88,1.51,1.51,0,0,1-.4,1A2.11,2.11,0,0,1,18.1,28.62Zm-1.2-3.33h.59a2.13,2.13,0,0,0,.77-.11.48.48,0,0,0,.25-.49.5.5,0,0,0-.23-.49,1.83,1.83,0,0,0-.78-.12h-.6Zm0,2.27h.85a1.89,1.89,0,0,0,.81-.13.53.53,0,0,0,.26-.52.49.49,0,0,0-.28-.51,2.27,2.27,0,0,0-.91-.13H16.9Z" transform="translate(-8.96 -10.04)"/><path class="cls-2" d="M25.86,27.84a3,3,0,0,1-4.17,0,2.92,2.92,0,0,1,0-4.12,3.06,3.06,0,0,1,4.17,0,2.92,2.92,0,0,1,0,4.12Zm-.42-2.05A1.83,1.83,0,0,0,25,24.51a1.58,1.58,0,0,0-2.36,0,1.83,1.83,0,0,0-.48,1.28,1.81,1.81,0,0,0,.48,1.27,1.6,1.6,0,0,0,2.36,0A1.81,1.81,0,0,0,25.44,25.79Z" transform="translate(-8.96 -10.04)"/><path class="cls-2" d="M29.71,26.58,31.14,23h1.35l-2.25,5.6H29.18L26.94,23h1.35Z" transform="translate(-8.96 -10.04)"/><path class="cls-2" d="M37.18,23v1.12H34.4v1.15h2.5v1.06H34.4v1.16h2.87v1.11H33.15V23Z" transform="translate(-8.96 -10.04)"/><path class="cls-2" d="M14.7,35.1l-1.52,3h-.74l-1.5-3v3.52H9.69V33h1.69l1.44,3.08L14.26,33h1.68v5.6H14.7Z" transform="translate(-8.96 -10.04)"/><path class="cls-2" d="M22,37.84a3,3,0,0,1-4.17,0,2.92,2.92,0,0,1,0-4.12,3.06,3.06,0,0,1,4.17,0,2.92,2.92,0,0,1,0,4.12Zm-.42-2.05a1.83,1.83,0,0,0-.48-1.28,1.58,1.58,0,0,0-2.36,0,1.83,1.83,0,0,0-.48,1.28,1.81,1.81,0,0,0,.48,1.27,1.6,1.6,0,0,0,2.36,0A1.81,1.81,0,0,0,21.6,35.79Z" transform="translate(-8.96 -10.04)"/><path class="cls-2" d="M28.2,33.76a2.61,2.61,0,0,1,.8,2,2.77,2.77,0,0,1-.78,2.07,3.32,3.32,0,0,1-2.38.76H23.93V33h2A3.28,3.28,0,0,1,28.2,33.76Zm-.92,3.32a2,2,0,0,0,0-2.52,1.93,1.93,0,0,0-1.41-.45h-.69v3.4H26A1.82,1.82,0,0,0,27.28,37.08Z" transform="translate(-8.96 -10.04)"/><path class="cls-2" d="M34.11,33v1.12H31.33v1.15h2.5v1.06h-2.5v1.16H34.2v1.11H30.08V33Z" transform="translate(-8.96 -10.04)"/><path class="cls-2" d="M39.85,34.88a1.66,1.66,0,0,1-1.07,1.74l1.42,2H38.66l-1.24-1.79h-.86v1.79H35.31V33h2.12a3.06,3.06,0,0,1,1.86.44A1.72,1.72,0,0,1,39.85,34.88Zm-1.51.66a.83.83,0,0,0,.24-.66.72.72,0,0,0-.24-.62,1.57,1.57,0,0,0-.84-.16h-.94v1.65h.91A1.31,1.31,0,0,0,38.34,35.54Z" transform="translate(-8.96 -10.04)"/><path class="cls-2" d="M45.11,38.62l-.52-1.21H42.25l-.52,1.21H40.4L42.81,33H44l2.42,5.6Zm-1.69-3.93-.7,1.62h1.4Z" transform="translate(-8.96 -10.04)"/><path class="cls-2" d="M49.05,34.1v4.52H47.8V34.1H46.22V33h4.41V34.1Z" transform="translate(-8.96 -10.04)"/><path class="cls-2" d="M55.58,33v1.12H52.79v1.15H55.3v1.06H52.79v1.16h2.87v1.11H51.54V33Z" transform="translate(-8.96 -10.04)"/><path class="cls-2" d="M86.84,10.23v1.62H83.53v1.4a3.08,3.08,0,0,1,.85-.11,3.16,3.16,0,0,1,2.09.74,2.42,2.42,0,0,1,.87,2,2.63,2.63,0,0,1-.9,2,3.25,3.25,0,0,1-2.24.81,3.68,3.68,0,0,1-2.85-1.26l1-1.37c.07.08.17.16.29.27a4.2,4.2,0,0,0,.66.41,2,2,0,0,0,1,.26,1.37,1.37,0,0,0,.85-.29,1,1,0,0,0,.37-.85,1,1,0,0,0-.4-.87,1.71,1.71,0,0,0-1-.31,3.28,3.28,0,0,0-1.48.46l-.78-.84V10.23Z" transform="translate(-8.96 -10.04)"/><path class="cls-2" d="M88.9,18.41a1,1,0,0,1-.31-.75,1.06,1.06,0,0,1,1.06-1.06,1,1,0,0,1,1,1.06,1,1,0,0,1-1,1.05A1,1,0,0,1,88.9,18.41Z" transform="translate(-8.96 -10.04)"/><path class="cls-2" d="M92.27,11.82V10.23h5.14v1.29l-1.72,2a2.41,2.41,0,0,1,2.12,2.41,2.55,2.55,0,0,1-.9,2.07,3.42,3.42,0,0,1-2.28.75,5,5,0,0,1-2.82-1l.76-1.49a3.84,3.84,0,0,0,2.13.84,1.49,1.49,0,0,0,.93-.28A.93.93,0,0,0,96,16a1,1,0,0,0-.42-.83,1.88,1.88,0,0,0-1.16-.31,4.15,4.15,0,0,0-1.12.23V13.72l1.61-1.9Z" transform="translate(-8.96 -10.04)"/><path class="cls-2" d="M102.77,12.12a1.59,1.59,0,0,1-.5,1.2,1.78,1.78,0,0,1-1.27.48,1.72,1.72,0,0,1-1.26-.49,1.59,1.59,0,0,1-.51-1.19,1.61,1.61,0,0,1,.51-1.2,1.76,1.76,0,0,1,1.26-.49,1.78,1.78,0,0,1,1.27.49A1.6,1.6,0,0,1,102.77,12.12Zm4.61-1.89-6,8.39H99.31l6-8.39Zm-6.74,2.32a.45.45,0,0,0,.36.16.46.46,0,0,0,.36-.16.65.65,0,0,0,.14-.43.67.67,0,0,0-.14-.43.45.45,0,0,0-.36-.18.44.44,0,0,0-.35.18.62.62,0,0,0-.14.43A.65.65,0,0,0,100.64,12.55ZM107.5,17a1.64,1.64,0,0,1-.5,1.2,1.78,1.78,0,0,1-1.27.48,1.7,1.7,0,0,1-1.26-.49,1.66,1.66,0,0,1,0-2.39,1.7,1.7,0,0,1,1.26-.49,1.74,1.74,0,0,1,1.27.49A1.64,1.64,0,0,1,107.5,17Zm-2.13.43a.44.44,0,0,0,.36.16.46.46,0,0,0,.36-.16.65.65,0,0,0,.14-.43.72.72,0,0,0-.14-.44.48.48,0,0,0-.36-.17.44.44,0,0,0-.35.17.67.67,0,0,0-.15.44A.65.65,0,0,0,105.37,17.46Z" transform="translate(-8.96 -10.04)"/><path class="cls-2" d="M81.45,28.62V23H82.7V27.5h2.39v1.12Z" transform="translate(-8.96 -10.04)"/><path class="cls-2" d="M90.55,27.84a3,3,0,0,1-4.18,0,2.95,2.95,0,0,1,0-4.12,3.07,3.07,0,0,1,4.18,0,2.92,2.92,0,0,1,0,4.12Zm-.42-2.05a1.83,1.83,0,0,0-.48-1.28,1.58,1.58,0,0,0-2.36,0,1.83,1.83,0,0,0-.48,1.28,1.81,1.81,0,0,0,.48,1.27,1.6,1.6,0,0,0,2.36,0A1.81,1.81,0,0,0,90.13,25.79Z" transform="translate(-8.96 -10.04)"/><path class="cls-2" d="M94.12,26.24l1-3.22h1.3l1,3.22L98.51,23h1.35l-2,5.6H97l-1.22-3.89-1.22,3.89h-.93l-2-5.6H93Z" transform="translate(-8.96 -10.04)"/><path class="cls-2" d="M81.45,33H82.7v5.6H81.45Z" transform="translate(-8.96 -10.04)"/><path class="cls-2" d="M88,33h1.25v5.6H88l-2.66-3.51v3.51H84.08V33h1.17L88,36.62Z" transform="translate(-8.96 -10.04)"/><path class="cls-2" d="M93.18,37.51a1.83,1.83,0,0,0,1.51-.73l.8.83a3,3,0,0,1-2.25,1.07,2.91,2.91,0,0,1-2.13-.82,3,3,0,0,1,0-4.13,2.84,2.84,0,0,1,2.08-.83,3,3,0,0,1,2.31,1l-.78.88a1.8,1.8,0,0,0-1.47-.73,1.68,1.68,0,0,0-1.2.46,1.57,1.57,0,0,0-.5,1.24A1.67,1.67,0,0,0,92,37,1.55,1.55,0,0,0,93.18,37.51Z" transform="translate(-8.96 -10.04)"/><path class="cls-2" d="M101.05,37.84a3,3,0,0,1-4.17,0,2.92,2.92,0,0,1,0-4.12,3.06,3.06,0,0,1,4.17,0,2.92,2.92,0,0,1,0,4.12Zm-.42-2.05a1.83,1.83,0,0,0-.48-1.28,1.58,1.58,0,0,0-2.36,0,1.83,1.83,0,0,0-.48,1.28,1.81,1.81,0,0,0,.48,1.27,1.6,1.6,0,0,0,2.36,0A1.81,1.81,0,0,0,100.63,35.79Z" transform="translate(-8.96 -10.04)"/><path class="cls-2" d="M108,35.1l-1.52,3h-.74l-1.5-3v3.52H103V33h1.69l1.44,3.08L107.53,33h1.68v5.6H108Z" transform="translate(-8.96 -10.04)"/><path class="cls-2" d="M114.62,33v1.12h-2.78v1.15h2.5v1.06h-2.5v1.16h2.87v1.11h-4.12V33Z" transform="translate(-8.96 -10.04)"/><path class="cls-2" d="M115.87,36.37a.69.69,0,0,1-.2-.5.7.7,0,0,1,.2-.5.72.72,0,0,1,.5-.2.69.69,0,0,1,.5.2.67.67,0,0,1,.21.5.72.72,0,0,1-.71.71A.69.69,0,0,1,115.87,36.37Zm0,2.11a.72.72,0,0,1-.2-.5.7.7,0,0,1,.7-.71.72.72,0,0,1,.71.71.7.7,0,0,1-.71.7A.72.72,0,0,1,115.87,38.48Z" transform="translate(-8.96 -10.04)"/><path class="cls-2" d="M84.39,46.66v-2.3h.9v4.26h-.9v-.78a1.56,1.56,0,0,1-.6.62,1.65,1.65,0,0,1-.82.22,1.59,1.59,0,0,1-1.16-.44A1.69,1.69,0,0,1,81.37,47V44.36h.89V46.7c0,.78.33,1.17,1,1.17a1.16,1.16,0,0,0,.81-.31A1.13,1.13,0,0,0,84.39,46.66Z" transform="translate(-8.96 -10.04)"/><path class="cls-2" d="M88.86,44.3a2,2,0,0,1,1.47.59,2.1,2.1,0,0,1,.6,1.57,2.19,2.19,0,0,1-.6,1.6,1.91,1.91,0,0,1-1.41.62,1.93,1.93,0,0,1-1.44-.7v2.19h-.9V44.36h.9v.74A1.58,1.58,0,0,1,88.86,44.3Zm-1.4,2.2a1.37,1.37,0,0,0,.37,1,1.17,1.17,0,0,0,.9.39,1.29,1.29,0,0,0,.92-.38,1.35,1.35,0,0,0,.39-1,1.41,1.41,0,0,0-.39-1,1.21,1.21,0,0,0-.92-.4,1.16,1.16,0,0,0-.9.4A1.44,1.44,0,0,0,87.46,46.5Z" transform="translate(-8.96 -10.04)"/><path class="cls-2" d="M95.25,45.08v2.16a.73.73,0,0,0,.16.48.58.58,0,0,0,.45.18.74.74,0,0,0,.55-.28l.37.64a1.52,1.52,0,0,1-1,.42,1.34,1.34,0,0,1-1-.4,1.41,1.41,0,0,1-.4-1.06V45.08h-.54v-.72h.54V43h.89v1.34h1.12v.72Z" transform="translate(-8.96 -10.04)"/><path class="cls-2" d="M101,48a2.32,2.32,0,0,1-3.2,0,2.08,2.08,0,0,1-.64-1.55,2.1,2.1,0,0,1,.64-1.56,2.35,2.35,0,0,1,3.2,0,2.1,2.1,0,0,1,.64,1.56A2.08,2.08,0,0,1,101,48Zm-2.56-.55a1.38,1.38,0,0,0,1.92,0,1.34,1.34,0,0,0,.38-1,1.36,1.36,0,0,0-.38-1,1.4,1.4,0,0,0-1.92,0,1.36,1.36,0,0,0-.38,1A1.34,1.34,0,0,0,98.47,47.49Z" transform="translate(-8.96 -10.04)"/><path class="cls-2" d="M83,59.19v-.58a3.56,3.56,0,0,1-2-.87l.59-.7a2.8,2.8,0,0,0,1.38.7V56.18a3.28,3.28,0,0,1-1.32-.56,1.31,1.31,0,0,1-.42-1,1.46,1.46,0,0,1,.48-1.13A2,2,0,0,1,83,53v-.4h.51V53a3.32,3.32,0,0,1,1.67.6l-.52.73a2.66,2.66,0,0,0-1.15-.46v1.5h0a3.28,3.28,0,0,1,1.35.59A1.31,1.31,0,0,1,85.35,57a1.48,1.48,0,0,1-.5,1.14,2.08,2.08,0,0,1-1.31.48v.57ZM82.47,54a.57.57,0,0,0-.21.45.55.55,0,0,0,.16.42,1.79,1.79,0,0,0,.61.3V53.82A.92.92,0,0,0,82.47,54Zm1.68,3.51a.59.59,0,0,0,.22-.47.6.6,0,0,0-.17-.44,1.84,1.84,0,0,0-.66-.31v1.44A1.16,1.16,0,0,0,84.15,57.54Z" transform="translate(-8.96 -10.04)"/><path class="cls-2" d="M88.55,53.77a1.27,1.27,0,0,0-1.1.5,2.46,2.46,0,0,0-.36,1.36,2.12,2.12,0,0,1,.58-.42A1.78,1.78,0,0,1,88.5,55a1.7,1.7,0,0,1,1.26.5,1.76,1.76,0,0,1,.51,1.32,1.72,1.72,0,0,1-.55,1.34,2,2,0,0,1-1.38.5,1.85,1.85,0,0,1-1.85-1.2,3.86,3.86,0,0,1-.29-1.55,4.86,4.86,0,0,1,.18-1.44,2.15,2.15,0,0,1,.51-.91,2,2,0,0,1,1.53-.66,2.62,2.62,0,0,1,1.64.57l-.47.69a1.86,1.86,0,0,0-.49-.28A1.4,1.4,0,0,0,88.55,53.77Zm-.17,2.08a1.24,1.24,0,0,0-.81.27.83.83,0,0,0-.32.69,1,1,0,0,0,.31.74,1.1,1.1,0,0,0,.78.31,1.17,1.17,0,0,0,.79-.28.92.92,0,0,0,.31-.7,1,1,0,0,0-1.06-1Z" transform="translate(-8.96 -10.04)"/><path class="cls-2" d="M93.37,56.35v-1h.9v1h.67v.86h-.67v1.41h-.9V57.21H91v-.83L93,53h1l-2,3.33Z" transform="translate(-8.96 -10.04)"/><path class="cls-2" d="M95.78,58.1a.57.57,0,0,1,.18-.43.53.53,0,0,1,.41-.17.57.57,0,0,1,.42.17.54.54,0,0,1,.18.41,1.18,1.18,0,0,1-.21.58l-.48.8h-.47l.3-.84A.52.52,0,0,1,95.78,58.1Z" transform="translate(-8.96 -10.04)"/><path class="cls-2" d="M101.39,53v.85H99v1.38a1.6,1.6,0,0,1,.8-.19,2,2,0,0,1,1.35.47,1.57,1.57,0,0,1,.57,1.28,1.74,1.74,0,0,1-.59,1.34,2.13,2.13,0,0,1-1.46.53,2.3,2.3,0,0,1-1.8-.75l.51-.69.17.15a2.17,2.17,0,0,0,.44.24,1.81,1.81,0,0,0,.74.15,1.23,1.23,0,0,0,.73-.24.93.93,0,0,0,0-1.42,1.55,1.55,0,0,0-.88-.25,2,2,0,0,0-1,.27l-.4-.44V53Z" transform="translate(-8.96 -10.04)"/><path class="cls-2" d="M106,53v.85h-2.36v1.38a1.63,1.63,0,0,1,.8-.19,2,2,0,0,1,1.35.47,1.57,1.57,0,0,1,.57,1.28,1.74,1.74,0,0,1-.59,1.34,2.11,2.11,0,0,1-1.46.53,2.3,2.3,0,0,1-1.8-.75l.51-.69.17.15a2.17,2.17,0,0,0,.44.24,1.81,1.81,0,0,0,.74.15,1.21,1.21,0,0,0,.73-.24.82.82,0,0,0,.33-.7.85.85,0,0,0-.35-.72,1.52,1.52,0,0,0-.88-.25,2,2,0,0,0-1,.27l-.4-.44V53Z" transform="translate(-8.96 -10.04)"/><path class="cls-2" d="M107.81,57.89a4.17,4.17,0,0,1,0-4.21,1.94,1.94,0,0,1,1.71-.79,2,2,0,0,1,1.71.79,4.17,4.17,0,0,1,0,4.21,2,2,0,0,1-1.71.79A1.94,1.94,0,0,1,107.81,57.89Zm.67-3.62a3.64,3.64,0,0,0,0,3,1.12,1.12,0,0,0,1,.57,1.1,1.1,0,0,0,1-.57,3.15,3.15,0,0,0,.32-1.52,3.11,3.11,0,0,0-.32-1.51,1.1,1.1,0,0,0-1-.57A1.12,1.12,0,0,0,108.48,54.27Z" transform="translate(-8.96 -10.04)"/><path class="cls-2" d="M154.1,10.7a3.61,3.61,0,0,1,4.16,0,2,2,0,0,1,.82,1.62,2.2,2.2,0,0,1-.74,1.66,2.53,2.53,0,0,1,1,2.12,2.35,2.35,0,0,1-.89,1.86,3.45,3.45,0,0,1-2.31.75,3.5,3.5,0,0,1-2.32-.75A2.37,2.37,0,0,1,153,16.1,2.53,2.53,0,0,1,154,14a2.21,2.21,0,0,1-.76-1.66A2,2,0,0,1,154.1,10.7Zm1.17,6.17a1.62,1.62,0,0,0,1.82,0,1,1,0,0,0,0-1.65,1.57,1.57,0,0,0-.92-.29,1.55,1.55,0,0,0-.92.29,1,1,0,0,0,0,1.65Zm.11-3.67a1.25,1.25,0,0,0,1.6,0,.91.91,0,0,0,0-1.42,1.25,1.25,0,0,0-1.6,0,.91.91,0,0,0,0,1.42Z" transform="translate(-8.96 -10.04)"/><path class="cls-2" d="M161,18.41a1.06,1.06,0,0,1-.31-.75,1,1,0,0,1,.31-.75,1.06,1.06,0,0,1,1.5,0,1,1,0,0,1,.3.75,1.05,1.05,0,0,1-.3.75,1.09,1.09,0,0,1-1.5,0Z" transform="translate(-8.96 -10.04)"/><path class="cls-2" d="M164.39,11.82V10.23h5.13v1.29l-1.71,2a2.39,2.39,0,0,1,2.11,2.41A2.57,2.57,0,0,1,169,18a3.45,3.45,0,0,1-2.29.75,5,5,0,0,1-2.82-1l.77-1.49a3.82,3.82,0,0,0,2.12.84,1.45,1.45,0,0,0,.93-.28.94.94,0,0,0,.37-.79,1,1,0,0,0-.42-.83,1.91,1.91,0,0,0-1.17-.31,4.1,4.1,0,0,0-1.11.23V13.72l1.61-1.9Z" transform="translate(-8.96 -10.04)"/><path class="cls-2" d="M174.89,12.12a1.59,1.59,0,0,1-.51,1.2,1.89,1.89,0,0,1-2.53,0,1.62,1.62,0,0,1-.5-1.19,1.64,1.64,0,0,1,.5-1.2,1.78,1.78,0,0,1,1.27-.49,1.74,1.74,0,0,1,1.26.49A1.61,1.61,0,0,1,174.89,12.12Zm4.6-1.89-6,8.39h-2.06l6-8.39Zm-6.73,2.32a.43.43,0,0,0,.35.16.45.45,0,0,0,.36-.16.61.61,0,0,0,.15-.43.63.63,0,0,0-.15-.43.42.42,0,0,0-.35-.18.45.45,0,0,0-.36.18.67.67,0,0,0-.14.43A.6.6,0,0,0,172.76,12.55ZM179.62,17a1.61,1.61,0,0,1-.51,1.2,1.77,1.77,0,0,1-1.26.48,1.73,1.73,0,0,1-1.27-.49,1.66,1.66,0,0,1,0-2.39,1.88,1.88,0,0,1,2.53,0A1.61,1.61,0,0,1,179.62,17Zm-2.14.43a.49.49,0,0,0,.72,0,.6.6,0,0,0,.14-.43.66.66,0,0,0-.14-.44.46.46,0,0,0-.71,0,.72.72,0,0,0-.14.44A.65.65,0,0,0,177.48,17.46Z" transform="translate(-8.96 -10.04)"/><path class="cls-2" d="M155.08,26.58,156.5,23h1.35l-2.24,5.6h-1.06L152.3,23h1.35Z" transform="translate(-8.96 -10.04)"/><path class="cls-2" d="M162.55,23v1.12h-2.78v1.15h2.5v1.06h-2.5v1.16h2.87v1.11h-4.12V23Z" transform="translate(-8.96 -10.04)"/><path class="cls-2" d="M168.29,24.88a1.66,1.66,0,0,1-1.07,1.74l1.42,2H167.1l-1.24-1.79H165v1.79h-1.25V23h2.12a3.06,3.06,0,0,1,1.86.44A1.72,1.72,0,0,1,168.29,24.88Zm-1.51.66a.83.83,0,0,0,.24-.66.7.7,0,0,0-.25-.62,1.55,1.55,0,0,0-.83-.16H165v1.65h.91A1.31,1.31,0,0,0,166.78,25.54Z" transform="translate(-8.96 -10.04)"/><path class="cls-2" d="M171.84,28.62h-1.25V26.41L168.65,23H170l1.21,2.08,1.2-2.08h1.35l-1.93,3.39Z" transform="translate(-8.96 -10.04)"/><path class="cls-2" d="M176.49,28.62V23h1.24V27.5h2.39v1.12Z" transform="translate(-8.96 -10.04)"/><path class="cls-2" d="M185.58,27.84a3,3,0,0,1-4.17,0,2.92,2.92,0,0,1,0-4.12,3.06,3.06,0,0,1,4.17,0,2.92,2.92,0,0,1,0,4.12Zm-.42-2.05a1.83,1.83,0,0,0-.48-1.28,1.58,1.58,0,0,0-2.36,0,1.83,1.83,0,0,0-.48,1.28,1.81,1.81,0,0,0,.48,1.27,1.6,1.6,0,0,0,2.36,0A1.81,1.81,0,0,0,185.16,25.79Z" transform="translate(-8.96 -10.04)"/><path class="cls-2" d="M189.15,26.24l1-3.22h1.31l1,3.22L193.54,23h1.36l-2,5.6H192l-1.22-3.89-1.22,3.89h-.92l-2-5.6h1.36Z" transform="translate(-8.96 -10.04)"/><path class="cls-2" d="M153,33h1.24v5.6H153Z" transform="translate(-8.96 -10.04)"/><path class="cls-2" d="M159.55,33h1.25v5.6h-1.25l-2.66-3.51v3.51h-1.25V33h1.17l2.74,3.6Z" transform="translate(-8.96 -10.04)"/><path class="cls-2" d="M164.74,37.51a1.83,1.83,0,0,0,1.51-.73l.8.83a3,3,0,0,1-2.25,1.07,2.91,2.91,0,0,1-2.13-.82,3,3,0,0,1,0-4.13,2.84,2.84,0,0,1,2.08-.83,3,3,0,0,1,2.31,1l-.78.88a1.8,1.8,0,0,0-1.47-.73,1.68,1.68,0,0,0-1.2.46,1.57,1.57,0,0,0-.5,1.24A1.67,1.67,0,0,0,163.6,37,1.57,1.57,0,0,0,164.74,37.51Z" transform="translate(-8.96 -10.04)"/><path class="cls-2" d="M172.62,37.84a3,3,0,0,1-4.17,0,2.92,2.92,0,0,1,0-4.12,3.06,3.06,0,0,1,4.17,0,2.92,2.92,0,0,1,0,4.12Zm-.42-2.05a1.83,1.83,0,0,0-.48-1.28,1.58,1.58,0,0,0-2.36,0,1.83,1.83,0,0,0-.48,1.28,1.81,1.81,0,0,0,.48,1.27,1.6,1.6,0,0,0,2.36,0A1.81,1.81,0,0,0,172.2,35.79Z" transform="translate(-8.96 -10.04)"/><path class="cls-2" d="M179.53,35.1l-1.51,3h-.74l-1.51-3v3.52h-1.24V33h1.69l1.43,3.08L179.1,33h1.68v5.6h-1.25Z" transform="translate(-8.96 -10.04)"/><path class="cls-2" d="M186.19,33v1.12h-2.78v1.15h2.5v1.06h-2.5v1.16h2.87v1.11h-4.12V33Z" transform="translate(-8.96 -10.04)"/><path class="cls-2" d="M187.44,36.54a.59.59,0,0,1-.17-.42.57.57,0,0,1,.17-.42.61.61,0,0,1,.42-.17.61.61,0,0,1,.43.17.57.57,0,0,1,.17.42.59.59,0,0,1-.17.42.58.58,0,0,1-.43.18A.58.58,0,0,1,187.44,36.54Zm0,2a.59.59,0,0,1-.17-.42.57.57,0,0,1,.17-.42.61.61,0,0,1,.42-.17.61.61,0,0,1,.43.17.57.57,0,0,1,.17.42.59.59,0,0,1-.17.42.58.58,0,0,1-.43.18A.58.58,0,0,1,187.44,38.5Z" transform="translate(-8.96 -10.04)"/><path class="cls-2" d="M156,46.66v-2.3h.9v4.26H156v-.78a1.56,1.56,0,0,1-.6.62,1.64,1.64,0,0,1-.81.22,1.62,1.62,0,0,1-1.17-.44,1.69,1.69,0,0,1-.44-1.27V44.36h.89V46.7c0,.78.33,1.17,1,1.17a1.16,1.16,0,0,0,.81-.31A1.13,1.13,0,0,0,156,46.66Z" transform="translate(-8.96 -10.04)"/><path class="cls-2" d="M160.42,44.3a2,2,0,0,1,1.47.59,2.1,2.1,0,0,1,.6,1.57,2.19,2.19,0,0,1-.6,1.6,1.91,1.91,0,0,1-1.41.62A2,2,0,0,1,159,48v2.19h-.9V44.36h.9v.74A1.58,1.58,0,0,1,160.42,44.3ZM159,46.5a1.41,1.41,0,0,0,.37,1,1.2,1.2,0,0,0,.9.39,1.29,1.29,0,0,0,.92-.38,1.35,1.35,0,0,0,.39-1,1.45,1.45,0,0,0-.38-1,1.24,1.24,0,0,0-.92-.4,1.18,1.18,0,0,0-.91.4A1.49,1.49,0,0,0,159,46.5Z" transform="translate(-8.96 -10.04)"/><path class="cls-2" d="M166.81,45.08v2.16a.69.69,0,0,0,.17.48.54.54,0,0,0,.44.18.78.78,0,0,0,.56-.28l.36.64a1.52,1.52,0,0,1-1,.42,1.34,1.34,0,0,1-1-.4,1.41,1.41,0,0,1-.4-1.06V45.08h-.54v-.72h.54V43h.89v1.34h1.13v.72Z" transform="translate(-8.96 -10.04)"/><path class="cls-2" d="M172.59,48a2.32,2.32,0,0,1-3.2,0,2.08,2.08,0,0,1-.64-1.55,2.1,2.1,0,0,1,.64-1.56,2.35,2.35,0,0,1,3.2,0,2.1,2.1,0,0,1,.64,1.56A2.08,2.08,0,0,1,172.59,48ZM170,47.49a1.38,1.38,0,0,0,1.92,0,1.34,1.34,0,0,0,.38-1,1.36,1.36,0,0,0-.38-1,1.4,1.4,0,0,0-1.92,0,1.36,1.36,0,0,0-.38,1A1.34,1.34,0,0,0,170,47.49Z" transform="translate(-8.96 -10.04)"/><path class="cls-2" d="M154.59,59.19v-.58a3.56,3.56,0,0,1-2-.87l.59-.7a2.8,2.8,0,0,0,1.38.7V56.18a3.28,3.28,0,0,1-1.32-.56,1.31,1.31,0,0,1-.42-1,1.46,1.46,0,0,1,.48-1.13,2,2,0,0,1,1.26-.48v-.4h.51V53a3.32,3.32,0,0,1,1.67.6l-.52.73a2.61,2.61,0,0,0-1.15-.46v1.5h0a3.28,3.28,0,0,1,1.35.59,1.31,1.31,0,0,1,.43,1.07,1.45,1.45,0,0,1-.5,1.14,2.08,2.08,0,0,1-1.31.48v.57ZM154,54a.57.57,0,0,0-.21.45.59.59,0,0,0,.16.42,1.79,1.79,0,0,0,.61.3V53.82A.92.92,0,0,0,154,54Zm1.68,3.51a.6.6,0,0,0,.23-.47.57.57,0,0,0-.18-.44,1.84,1.84,0,0,0-.66-.31v1.44A1.16,1.16,0,0,0,155.71,57.54Z" transform="translate(-8.96 -10.04)"/><path class="cls-2" d="M160,56.35v-1h.89v1h.67v.86h-.67v1.41H160V57.21h-2.41v-.83L159.63,53h1l-2,3.33Z" transform="translate(-8.96 -10.04)"/><path class="cls-2" d="M162.9,57.89a4.17,4.17,0,0,1,0-4.21,1.94,1.94,0,0,1,1.71-.79,2,2,0,0,1,1.71.79,4.17,4.17,0,0,1,0,4.21,2,2,0,0,1-1.71.79A1.94,1.94,0,0,1,162.9,57.89Zm.67-3.62a3.64,3.64,0,0,0,0,3,1.12,1.12,0,0,0,1,.57,1.1,1.1,0,0,0,1-.57,3.15,3.15,0,0,0,.32-1.52,3.11,3.11,0,0,0-.32-1.51,1.1,1.1,0,0,0-1-.57A1.12,1.12,0,0,0,163.57,54.27Z" transform="translate(-8.96 -10.04)"/><path class="cls-2" d="M167.89,58.1a.6.6,0,0,1,.17-.43.6.6,0,0,1,.84,0,.54.54,0,0,1,.18.41,1.11,1.11,0,0,1-.22.58l-.48.8h-.46l.3-.84A.52.52,0,0,1,167.89,58.1Z" transform="translate(-8.96 -10.04)"/><path class="cls-2" d="M170.22,53.86V53h3.27v.74l-1.35,1.51a1.64,1.64,0,0,1,1.2.49,1.52,1.52,0,0,1,.43,1.1,1.65,1.65,0,0,1-.58,1.34,2.25,2.25,0,0,1-1.49.49,3.15,3.15,0,0,1-1.78-.59l.4-.76a2.49,2.49,0,0,0,1.44.48,1.35,1.35,0,0,0,.8-.22.79.79,0,0,0,.32-.66.8.8,0,0,0-.35-.68,1.65,1.65,0,0,0-1-.26,2,2,0,0,0-.6.09v-.72l1.3-1.51Z" transform="translate(-8.96 -10.04)"/><path class="cls-2" d="M178.12,53v.85h-2.36v1.38a1.6,1.6,0,0,1,.8-.19,2,2,0,0,1,1.35.47,1.57,1.57,0,0,1,.57,1.28,1.74,1.74,0,0,1-.59,1.34,2.13,2.13,0,0,1-1.46.53,2.3,2.3,0,0,1-1.8-.75l.5-.69.18.15a2.17,2.17,0,0,0,.44.24,1.81,1.81,0,0,0,.74.15,1.18,1.18,0,0,0,.72-.24.91.91,0,0,0,0-1.42,1.5,1.5,0,0,0-.88-.25,2,2,0,0,0-1,.27l-.4-.44V53Z" transform="translate(-8.96 -10.04)"/><path class="cls-2" d="M179.9,57.89a4.17,4.17,0,0,1,0-4.21,2.26,2.26,0,0,1,3.43,0,4.17,4.17,0,0,1,0,4.21,2.26,2.26,0,0,1-3.43,0Zm.68-3.62a3.64,3.64,0,0,0,0,3,1.11,1.11,0,0,0,1,.57,1.09,1.09,0,0,0,1-.57,3,3,0,0,0,.33-1.52,3,3,0,0,0-.33-1.51,1.09,1.09,0,0,0-1-.57A1.11,1.11,0,0,0,180.58,54.27Z" transform="translate(-8.96 -10.04)"/><path class="cls-2" d="M231.17,10.7a3.61,3.61,0,0,1,4.16,0,2,2,0,0,1,.82,1.62,2.16,2.16,0,0,1-.74,1.66,2.54,2.54,0,0,1,1.05,2.12,2.38,2.38,0,0,1-.89,1.86,3.95,3.95,0,0,1-4.63,0,2.35,2.35,0,0,1-.89-1.86,2.56,2.56,0,0,1,1-2.12,2.2,2.2,0,0,1-.75-1.66A2,2,0,0,1,231.17,10.7Zm1.17,6.17a1.62,1.62,0,0,0,1.82,0,.93.93,0,0,0,.42-.82,1,1,0,0,0-.4-.83,1.6,1.6,0,0,0-.93-.29,1.57,1.57,0,0,0-.92.29,1,1,0,0,0-.41.83A.93.93,0,0,0,232.34,16.87Zm.11-3.67a1.18,1.18,0,0,0,.8.29,1.16,1.16,0,0,0,.8-.29.88.88,0,0,0,.34-.71.91.91,0,0,0-.33-.71,1.19,1.19,0,0,0-.81-.29,1.14,1.14,0,0,0-.8.29.88.88,0,0,0-.34.71A.91.91,0,0,0,232.45,13.2Z" transform="translate(-8.96 -10.04)"/><path class="cls-2" d="M240.91,15V13.53h1.8V15h.94v1.62h-.94v2h-1.8v-2h-3.37V15.18l3-4.95h2L239.72,15Z" transform="translate(-8.96 -10.04)"/><path class="cls-2" d="M248.47,12.12a1.59,1.59,0,0,1-.51,1.2,1.89,1.89,0,0,1-2.53,0,1.62,1.62,0,0,1-.5-1.19,1.64,1.64,0,0,1,.5-1.2,1.78,1.78,0,0,1,1.27-.49,1.74,1.74,0,0,1,1.26.49A1.61,1.61,0,0,1,248.47,12.12Zm4.6-1.89-6,8.39H245l6-8.39Zm-6.73,2.32a.43.43,0,0,0,.35.16.45.45,0,0,0,.36-.16.61.61,0,0,0,.15-.43.63.63,0,0,0-.15-.43.42.42,0,0,0-.35-.18.45.45,0,0,0-.36.18.67.67,0,0,0-.14.43A.6.6,0,0,0,246.34,12.55ZM253.2,17a1.61,1.61,0,0,1-.51,1.2,1.77,1.77,0,0,1-1.26.48,1.73,1.73,0,0,1-1.27-.49,1.66,1.66,0,0,1,0-2.39,1.88,1.88,0,0,1,2.53,0A1.61,1.61,0,0,1,253.2,17Zm-2.14.43a.48.48,0,0,0,.72,0,.6.6,0,0,0,.14-.43.66.66,0,0,0-.14-.44.46.46,0,0,0-.71,0,.72.72,0,0,0-.14.44A.65.65,0,0,0,251.06,17.46Z" transform="translate(-8.96 -10.04)"/><path class="cls-2" d="M234.12,23v1.12h-2.78v1.15h2.5v1.06h-2.5v1.16h2.87v1.11h-4.12V23Z" transform="translate(-8.96 -10.04)"/><path class="cls-2" d="M238.46,23H240l-1.75,2.7,1.89,2.9h-1.52l-1.19-1.84-1.18,1.84h-1.51l1.88-2.87L234.84,23h1.5l1.06,1.66Z" transform="translate(-8.96 -10.04)"/><path class="cls-2" d="M243.25,24.1v4.52H242V24.1h-1.58V23h4.41V24.1Z" transform="translate(-8.96 -10.04)"/><path class="cls-2" d="M250.28,24.88a1.66,1.66,0,0,1-1.06,1.74l1.41,2H249.1l-1.25-1.79H247v1.79h-1.25V23h2.12a3.06,3.06,0,0,1,1.86.44A1.72,1.72,0,0,1,250.28,24.88Zm-1.5.66a.87.87,0,0,0,.23-.66.72.72,0,0,0-.24-.62,1.57,1.57,0,0,0-.84-.16H247v1.65h.91A1.36,1.36,0,0,0,248.78,25.54Z" transform="translate(-8.96 -10.04)"/><path class="cls-2" d="M255.59,23v1.12h-2.78v1.15h2.5v1.06h-2.5v1.16h2.87v1.11h-4.12V23Z" transform="translate(-8.96 -10.04)"/><path class="cls-2" d="M261.8,25.1l-1.51,3h-.75l-1.5-3v3.52h-1.25V23h1.69l1.44,3.08L261.37,23h1.68v5.6H261.8Z" transform="translate(-8.96 -10.04)"/><path class="cls-2" d="M268.46,23v1.12h-2.79v1.15h2.5v1.06h-2.5v1.16h2.87v1.11h-4.12V23Z" transform="translate(-8.96 -10.04)"/><path class="cls-2" d="M269.65,28.62V23h1.25V27.5h2.39v1.12Z" transform="translate(-8.96 -10.04)"/><path class="cls-2" d="M276.12,28.62h-1.25V26.41L272.94,23h1.35l1.2,2.08L276.7,23h1.36l-1.94,3.39Z" transform="translate(-8.96 -10.04)"/><path class="cls-2" d="M230.09,38.62V33h1.25V37.5h2.38v1.12Z" transform="translate(-8.96 -10.04)"/><path class="cls-2" d="M239.19,37.84a3,3,0,0,1-4.17,0,2.92,2.92,0,0,1,0-4.12,3.06,3.06,0,0,1,4.17,0,2.92,2.92,0,0,1,0,4.12Zm-.42-2.05a1.83,1.83,0,0,0-.48-1.28,1.58,1.58,0,0,0-2.36,0,1.83,1.83,0,0,0-.48,1.28,1.81,1.81,0,0,0,.48,1.27,1.6,1.6,0,0,0,2.36,0A1.81,1.81,0,0,0,238.77,35.79Z" transform="translate(-8.96 -10.04)"/><path class="cls-2" d="M242.76,36.24l1-3.22h1.31l1,3.22L247.15,33h1.35l-1.95,5.6h-.93l-1.22-3.89-1.22,3.89h-.92l-2-5.6h1.35Z" transform="translate(-8.96 -10.04)"/><path class="cls-2" d="M230.09,43h1.25v5.6h-1.25Z" transform="translate(-8.96 -10.04)"/><path class="cls-2" d="M236.62,43h1.25v5.6h-1.25L234,45.11v3.51h-1.25V43h1.17l2.74,3.6Z" transform="translate(-8.96 -10.04)"/><path class="cls-2" d="M241.81,47.51a1.83,1.83,0,0,0,1.51-.73l.8.83a2.93,2.93,0,0,1-2.24,1.07,2.88,2.88,0,0,1-2.13-.82,2.74,2.74,0,0,1-.84-2.06,2.79,2.79,0,0,1,.85-2.07,2.87,2.87,0,0,1,2.09-.83,3,3,0,0,1,2.3,1l-.77.88a1.83,1.83,0,0,0-1.48-.73,1.68,1.68,0,0,0-1.2.46,1.6,1.6,0,0,0-.5,1.24,1.71,1.71,0,0,0,.47,1.25A1.59,1.59,0,0,0,241.81,47.51Z" transform="translate(-8.96 -10.04)"/><path class="cls-2" d="M249.7,47.84a2.87,2.87,0,0,1-2.09.83,2.83,2.83,0,0,1-2.09-.83,2.92,2.92,0,0,1,0-4.12,2.87,2.87,0,0,1,2.09-.82,2.9,2.9,0,0,1,2.09.82,2.95,2.95,0,0,1,0,4.12Zm-.43-2.05a1.83,1.83,0,0,0-.48-1.28,1.58,1.58,0,0,0-2.36,0,1.83,1.83,0,0,0-.48,1.28,1.81,1.81,0,0,0,.48,1.27,1.6,1.6,0,0,0,2.36,0A1.81,1.81,0,0,0,249.27,45.79Z" transform="translate(-8.96 -10.04)"/><path class="cls-2" d="M256.61,45.1l-1.51,3h-.75l-1.5-3v3.52H251.6V43h1.69l1.44,3.08L256.18,43h1.67v5.6h-1.24Z" transform="translate(-8.96 -10.04)"/><path class="cls-2" d="M263.26,43v1.12h-2.78v1.15H263v1.06h-2.5v1.16h2.87v1.11h-4.12V43Z" transform="translate(-8.96 -10.04)"/><path class="cls-2" d="M264.52,46.37a.66.66,0,0,1-.21-.5.67.67,0,0,1,.21-.5.69.69,0,0,1,.5-.2.72.72,0,0,1,.5.2.7.7,0,0,1,.2.5.7.7,0,0,1-.7.71A.66.66,0,0,1,264.52,46.37Zm0,2.11a.69.69,0,0,1-.21-.5.72.72,0,0,1,.71-.71.7.7,0,0,1,.7.71.68.68,0,0,1-.7.7A.69.69,0,0,1,264.52,48.48Z" transform="translate(-8.96 -10.04)"/><path class="cls-2" d="M233,56.66v-2.3h.9v4.26H233v-.78a1.6,1.6,0,0,1-.59.62,1.71,1.71,0,0,1-.82.22,1.62,1.62,0,0,1-1.17-.44A1.73,1.73,0,0,1,230,57V54.36h.9V56.7c0,.78.32,1.17,1,1.17a1.16,1.16,0,0,0,.81-.31A1.13,1.13,0,0,0,233,56.66Z" transform="translate(-8.96 -10.04)"/><path class="cls-2" d="M237.5,54.3a2,2,0,0,1,1.46.59,2.11,2.11,0,0,1,.61,1.57,2.16,2.16,0,0,1-.61,1.6,1.91,1.91,0,0,1-1.4.62,2,2,0,0,1-1.45-.7v2.19h-.89V54.36h.89v.74A1.58,1.58,0,0,1,237.5,54.3Zm-1.4,2.2a1.4,1.4,0,0,0,.36,1,1.2,1.2,0,0,0,.9.39,1.29,1.29,0,0,0,.92-.38,1.35,1.35,0,0,0,.39-1,1.45,1.45,0,0,0-.38-1,1.22,1.22,0,0,0-.92-.4,1.18,1.18,0,0,0-.91.4A1.48,1.48,0,0,0,236.1,56.5Z" transform="translate(-8.96 -10.04)"/><path class="cls-2" d="M243.89,55.08v2.16a.68.68,0,0,0,.16.48.54.54,0,0,0,.44.18.76.76,0,0,0,.56-.28l.36.64a1.52,1.52,0,0,1-1,.42,1.3,1.3,0,0,1-1-.4,1.42,1.42,0,0,1-.41-1.06V55.08h-.53v-.72H243V53h.9v1.34H245v.72Z" transform="translate(-8.96 -10.04)"/><path class="cls-2" d="M249.66,58a2.32,2.32,0,0,1-3.2,0,2.12,2.12,0,0,1-.64-1.55,2.14,2.14,0,0,1,.64-1.56,2.35,2.35,0,0,1,3.2,0,2.1,2.1,0,0,1,.64,1.56A2.08,2.08,0,0,1,249.66,58Zm-2.56-.55a1.27,1.27,0,0,0,1,.39,1.31,1.31,0,0,0,1-.39,1.38,1.38,0,0,0,.38-1,1.41,1.41,0,0,0-.38-1,1.3,1.3,0,0,0-1-.38,1.27,1.27,0,0,0-1,.38,1.41,1.41,0,0,0-.38,1A1.38,1.38,0,0,0,247.1,57.49Z" transform="translate(-8.96 -10.04)"/><path class="cls-2" d="M231.66,69.19v-.58a3.53,3.53,0,0,1-2-.87l.58-.7a2.84,2.84,0,0,0,1.38.7V66.18a3.28,3.28,0,0,1-1.32-.56,1.31,1.31,0,0,1-.42-1.05,1.46,1.46,0,0,1,.48-1.13,2,2,0,0,1,1.26-.48v-.4h.52V63a3.29,3.29,0,0,1,1.66.6l-.52.73a2.57,2.57,0,0,0-1.14-.46v1.5h0a3.28,3.28,0,0,1,1.35.59A1.31,1.31,0,0,1,234,67a1.47,1.47,0,0,1-.49,1.14,2.1,2.1,0,0,1-1.31.48v.57ZM231.1,64a.56.56,0,0,0-.2.45.55.55,0,0,0,.16.42,1.63,1.63,0,0,0,.6.3V63.82A.92.92,0,0,0,231.1,64Zm1.68,3.51a.6.6,0,0,0,.23-.47.57.57,0,0,0-.18-.44,1.78,1.78,0,0,0-.65-.31v1.44A1.16,1.16,0,0,0,232.78,67.54Z" transform="translate(-8.96 -10.04)"/><path class="cls-2" d="M237.32,65.21a1.12,1.12,0,0,0,.24-.67.76.76,0,0,0-.26-.57.88.88,0,0,0-.64-.23,1.33,1.33,0,0,0-1.15.7l-.76-.44a2.8,2.8,0,0,1,.81-.83,2.11,2.11,0,0,1,1.15-.28,1.91,1.91,0,0,1,1.23.44,1.5,1.5,0,0,1,.52,1.21,1.64,1.64,0,0,1-.22.83,6,6,0,0,1-.82,1l-1.32,1.33h2.54v.91h-3.83v-.8l1.7-1.71A8.43,8.43,0,0,0,237.32,65.21Z" transform="translate(-8.96 -10.04)"/><path class="cls-2" d="M241.76,66.35v-1h.89v1h.68v.86h-.68v1.41h-.89V67.21h-2.4v-.83L241.42,63h1l-2,3.33Z" transform="translate(-8.96 -10.04)"/><path class="cls-2" d="M244.17,68.1a.6.6,0,0,1,.17-.43.6.6,0,0,1,.84,0,.54.54,0,0,1,.18.41,1.11,1.11,0,0,1-.22.58l-.48.8h-.46l.29-.84A.53.53,0,0,1,244.17,68.1Z" transform="translate(-8.96 -10.04)"/><path class="cls-2" d="M248.85,65.21a1.08,1.08,0,0,0,.25-.67.76.76,0,0,0-.26-.57.91.91,0,0,0-.65-.23,1.32,1.32,0,0,0-1.14.7l-.76-.44a2.58,2.58,0,0,1,.81-.83,2.09,2.09,0,0,1,1.14-.28,1.87,1.87,0,0,1,1.23.44,1.51,1.51,0,0,1,.53,1.21,1.75,1.75,0,0,1-.22.83,5.69,5.69,0,0,1-.83,1l-1.31,1.33h2.54v.91h-3.83v-.8l1.7-1.71A7.17,7.17,0,0,0,248.85,65.21Z" transform="translate(-8.96 -10.04)"/><path class="cls-2" d="M251.64,67.89a4.17,4.17,0,0,1,0-4.21,2.25,2.25,0,0,1,3.42,0,4.17,4.17,0,0,1,0,4.21,2.25,2.25,0,0,1-3.42,0Zm.67-3.62a3.64,3.64,0,0,0,0,3,1.13,1.13,0,0,0,1,.57,1.1,1.1,0,0,0,1-.57,3,3,0,0,0,.32-1.52,3,3,0,0,0-.32-1.51,1.1,1.1,0,0,0-1-.57A1.13,1.13,0,0,0,252.31,64.27Z" transform="translate(-8.96 -10.04)"/><path class="cls-2" d="M257.14,67.89a4.17,4.17,0,0,1,0-4.21,2.26,2.26,0,0,1,3.43,0,4.17,4.17,0,0,1,0,4.21,2.26,2.26,0,0,1-3.43,0Zm.68-3.62a3.64,3.64,0,0,0,0,3,1.11,1.11,0,0,0,1,.57,1.09,1.09,0,0,0,1-.57,3,3,0,0,0,.33-1.52,3,3,0,0,0-.33-1.51,1.09,1.09,0,0,0-1-.57A1.11,1.11,0,0,0,257.82,64.27Z" transform="translate(-8.96 -10.04)"/><g class="cls-3"><path class="cls-2" d="M10,131.63a1,1,0,0,1,1-1h0a1,1,0,0,1,1,1h0a1,1,0,0,1-1,1h0A1,1,0,0,1,10,131.63Zm0-5.87a1,1,0,0,1,1-1h0a1,1,0,0,1,1,1h0a1,1,0,0,1-1,1h0A1,1,0,0,1,10,125.76Zm0-5.88a1,1,0,0,1,1-1h0a1,1,0,0,1,1,1h0a1,1,0,0,1-1,1h0A1,1,0,0,1,10,119.88ZM10,114a1,1,0,0,1,1-1h0a1,1,0,0,1,1,1h0a1,1,0,0,1-1,1h0A1,1,0,0,1,10,114Zm0-5.88a1,1,0,0,1,1-1h0a1,1,0,0,1,1,1h0a1,1,0,0,1-1,1h0A1,1,0,0,1,10,108.13Zm0-5.87a1,1,0,0,1,1-1h0a1,1,0,0,1,1,1h0a1,1,0,0,1-1,1h0A1,1,0,0,1,10,102.26Zm0-5.88a1,1,0,0,1,1-1h0a1,1,0,0,1,1,1h0a1,1,0,0,1-1,1h0A1,1,0,0,1,10,96.38Zm0-5.87a1,1,0,0,1,1-1h0a1,1,0,0,1,1,1h0a1,1,0,0,1-1,1h0A1,1,0,0,1,10,90.51Zm0-5.88a1,1,0,0,1,1-1h0a1,1,0,0,1,1,1h0a1,1,0,0,1-1,1h0A1,1,0,0,1,10,84.63Zm0-5.87a1,1,0,0,1,1-1h0a1,1,0,0,1,1,1h0a1,1,0,0,1-1,1h0A1,1,0,0,1,10,78.76Zm0-5.88a1,1,0,0,1,1-1h0a1,1,0,0,1,1,1h0a1,1,0,0,1-1,1h0A1,1,0,0,1,10,72.88ZM10,67a1,1,0,0,1,1-1h0a1,1,0,0,1,1,1h0a1,1,0,0,1-1,1h0A1,1,0,0,1,10,67Zm0-5.88a1,1,0,0,1,1-1h0a1,1,0,0,1,1,1h0a1,1,0,0,1-1,1h0A1,1,0,0,1,10,61.13Zm0-5.87a1,1,0,0,1,1-1h0a1,1,0,0,1,1,1h0a1,1,0,0,1-1,1h0A1,1,0,0,1,10,55.26Zm0-5.88a1,1,0,0,1,1-1h0a1,1,0,0,1,1,1h0a1,1,0,0,1-1,1h0A1,1,0,0,1,10,49.38Z" transform="translate(-8.96 -10.04)"/><path class="cls-2" d="M11,138.51h0a1,1,0,0,1-1-1v-94a1,1,0,0,1,1-1h0a1,1,0,0,1,1,1v94A1,1,0,0,1,11,138.51Z" transform="translate(-8.96 -10.04)"/></g><path class="cls-2" d="M81.65,125.6a1,1,0,0,1,1-1h0a1,1,0,0,1,1,1h0a1,1,0,0,1-1,1h0A1,1,0,0,1,81.65,125.6Zm0-6.12a1,1,0,0,1,1-1h0a1,1,0,0,1,1,1h0a1,1,0,0,1-1,1h0A1,1,0,0,1,81.65,119.48Zm0-6.12a1,1,0,0,1,1-1h0a1,1,0,0,1,1,1h0a1,1,0,0,1-1,1h0A1,1,0,0,1,81.65,113.36Zm0-6.11a1,1,0,0,1,1-1h0a1,1,0,0,1,1,1h0a1,1,0,0,1-1,1h0A1,1,0,0,1,81.65,107.25Zm0-6.12a1,1,0,0,1,1-1h0a1,1,0,0,1,1,1h0a1,1,0,0,1-1,1h0A1,1,0,0,1,81.65,101.13Zm0-6.11a1,1,0,0,1,1-1h0a1,1,0,0,1,1,1h0a1,1,0,0,1-1,1h0A1,1,0,0,1,81.65,95Zm0-6.12a1,1,0,0,1,1-1h0a1,1,0,0,1,1,1h0a1,1,0,0,1-1,1h0A1,1,0,0,1,81.65,88.9Zm0-6.12a1,1,0,0,1,1-1h0a1,1,0,0,1,1,1h0a1,1,0,0,1-1,1h0A1,1,0,0,1,81.65,82.78Zm0-6.11a1,1,0,0,1,1-1h0a1,1,0,0,1,1,1h0a1,1,0,0,1-1,1h0A1,1,0,0,1,81.65,76.67Zm0-6.12a1,1,0,0,1,1-1h0a1,1,0,0,1,1,1h0a1,1,0,0,1-1,1h0A1,1,0,0,1,81.65,70.55Z" transform="translate(-8.96 -10.04)"/><path class="cls-2" d="M82.66,132.72h0a1,1,0,0,1-1-1V64.44a1,1,0,0,1,1-1h0a1,1,0,0,1,1,1v67.28A1,1,0,0,1,82.66,132.72Z" transform="translate(-8.96 -10.04)"/><path class="cls-2" d="M154.17,122.23a1,1,0,0,1,1-1h0a1,1,0,0,1,1,1h0a1,1,0,0,1-1,1h0A1,1,0,0,1,154.17,122.23Zm0-5.78a1,1,0,0,1,1-1h0a1,1,0,0,1,1,1h0a1,1,0,0,1-1,1h0A1,1,0,0,1,154.17,116.45Zm0-5.78a1,1,0,0,1,1-1h0a1,1,0,0,1,1,1h0a1,1,0,0,1-1,1h0A1,1,0,0,1,154.17,110.67Zm0-5.78a1,1,0,0,1,1-1h0a1,1,0,0,1,1,1h0a1,1,0,0,1-1,1h0A1,1,0,0,1,154.17,104.89Zm0-5.78a1,1,0,0,1,1-1h0a1,1,0,0,1,1,1h0a1,1,0,0,1-1,1h0A1,1,0,0,1,154.17,99.11Zm0-5.78a1,1,0,0,1,1-1h0a1,1,0,0,1,1,1h0a1,1,0,0,1-1,1h0A1,1,0,0,1,154.17,93.33Zm0-5.78a1,1,0,0,1,1-1h0a1,1,0,0,1,1,1h0a1,1,0,0,1-1,1h0A1,1,0,0,1,154.17,87.55Zm0-5.78a1,1,0,0,1,1-1h0a1,1,0,0,1,1,1h0a1,1,0,0,1-1,1h0A1,1,0,0,1,154.17,81.77Zm0-5.78a1,1,0,0,1,1-1h0a1,1,0,0,1,1,1h0a1,1,0,0,1-1,1h0A1,1,0,0,1,154.17,76Zm0-5.77a1,1,0,0,1,1-1h0a1,1,0,0,1,1,1h0a1,1,0,0,1-1,1h0A1,1,0,0,1,154.17,70.22Z" transform="translate(-8.96 -10.04)"/><path class="cls-2" d="M155.17,129h0a1,1,0,0,1-1-1V64.44a1,1,0,0,1,1-1h0a1,1,0,0,1,1,1V128A1,1,0,0,1,155.17,129Z" transform="translate(-8.96 -10.04)"/></g></g></svg>