<svg xmlns="http://www.w3.org/2000/svg" viewBox="0 0 144.55 204.58"><defs><style>.cls-1{fill:#00539f;}</style></defs><title>TNDC_Logo Blue Stacked</title><g id="Layer_2" data-name="Layer 2"><g id="Layer_1-2" data-name="Layer 1"><path shape-rendering="optimizeQuality" class="cls-1" d="M32.49,118.24C17,104.74,11,86.85,11,65.85c0-27.66,27.43-54,58.21-54s55.71,22.43,55.71,50.09A47.3,47.3,0,0,1,110.07,96v32.48c22.34-11.79,34.48-34.14,34.48-59.77C144.55,30.75,114.47,0,73.75,0S0,30.75,0,68.67c0,25.48,14.89,47.7,37,59.56v-6.38l-.56-.41v-7.56l.56.21v-.21"/><polygon class="cls-1" points="37.09 128.26 37.02 113.84 38.57 114.63 69.11 133.27 69.13 37.52 44.83 52.21 44.83 65.21 32.4 73.12 32.42 118.24 37.09 128.26"/><polygon class="cls-1" points="74.25 41.2 70.35 38.41 70.35 133.07 74.25 132.65 74.25 41.2"/><polygon class="cls-1" points="79.75 45.15 76.51 42.82 76.51 132.4 79.75 132.05 79.75 45.15"/><polygon class="cls-1" points="85.26 49.1 82.01 46.77 82.01 131.8 85.26 131.45 85.26 49.1"/><polygon class="cls-1" points="91.08 53.29 87.52 50.73 87.52 131.21 91.08 130.82 91.08 53.29"/><polygon class="cls-1" points="96.77 68.01 93.35 65.61 93.35 130.57 96.77 130.2 96.77 68.01"/><polygon class="cls-1" points="102.42 71.97 99.02 69.59 99.02 129.96 102.42 129.59 102.42 71.97"/><polygon class="cls-1" points="107.6 94.18 104.68 91.84 104.68 129.34 107.6 129.02 107.6 94.18"/><path class="cls-1" d="M8.6,157.1l1.1,7.53a133.53,133.53,0,0,1,1.84,14.8h.15V178c0-2.53-.11-5.1-.11-7.64V157.1h3.19v26.15H9L7.17,170.17c-.63-3.23-.85-6.17-1.18-9.25H5.85c0,1.13.07,2.27.11,3.37v19H2.76V157.1Z"/><path class="cls-1" d="M17.05,183.25V157.1h8.67v3.41H20.94v6.72h4.59v3.42H20.94v9.18h4.85v3.42Z"/><path class="cls-1" d="M27.22,183.25V157.1h3.9v26.15Z"/><path class="cls-1" d="M43.46,170.21v13h-2l-.11-1.65h-.07a3.74,3.74,0,0,1-3.53,2.16,4.22,4.22,0,0,1-4.51-4.4V161c0-3.42,2.68-4.41,5.06-4.41s5.11,1,5.11,4.41v5.55H39.57v-5.22c0-1.32-.41-1.62-1.18-1.62s-1.21.3-1.21,1.62V179c0,1.33.4,1.62,1.21,1.62s1.18-.29,1.18-1.62v-5.69H38v-3.12Z"/><path class="cls-1" d="M45.63,183.25V157.1h3.89v10h2.17v-10h3.89v26.15H51.69V170.54H49.52v12.71Z"/><path class="cls-1" d="M61.64,160.07h.88c1,0,1.4.44,1.4,2v4c0,1.5-.4,1.94-1.4,1.94h-.88Zm-3.89,23.18h5.47c3.27,0,4.7-2.39,4.7-5.51v-4.15c0-2.94-1.25-3.6-3.71-4.08v-.07c2.24-.52,3.57-1.21,3.6-3.49V161.8c0-2.79-1.43-4.7-4.55-4.7H57.75Zm3.89-12.2h.77c1.11,0,1.62.45,1.62,2.06v5c0,1.62-.51,2.06-1.62,2.06h-.77Z"/><path class="cls-1" d="M73.87,161.32c0-1.32.41-1.62,1.21-1.62s1.18.3,1.18,1.62V179c0,1.33-.4,1.62-1.18,1.62s-1.21-.29-1.21-1.62Zm-3.89,18c0,3.41,2.68,4.4,5.07,4.4s5.11-1,5.11-4.4V161c0-3.42-2.69-4.41-5.11-4.41S70,157.57,70,161Z"/><path class="cls-1" d="M86.1,160.22H87c.89,0,1.47.29,1.47,1.28v4.74c0,1-.29,1.69-1.65,1.69H86.1Zm0,23V171.13c1.81-.08,2.39.55,2.39,2.13,0,3.05-.18,7,.48,10h3.89c-.62-3.6-.4-7.27-.62-10.76-.15-2.39-2-3-3.71-3.2v-.07c3.3-.37,3.86-2,3.86-3.93v-3.71c0-3.38-1.91-4.48-5-4.48H82.21v26.15Z"/><path class="cls-1" d="M94.55,183.25V157.1h3.9v10h2.16v-10h3.9v26.15h-3.9V170.54H98.45v12.71Z"/><path class="cls-1" d="M110.57,161.32c0-1.32.4-1.62,1.21-1.62s1.18.3,1.18,1.62V179c0,1.33-.41,1.62-1.18,1.62s-1.21-.29-1.21-1.62Zm-3.9,18c0,3.41,2.69,4.4,5.08,4.4s5.1-1,5.1-4.4V161c0-3.42-2.68-4.41-5.1-4.41s-5.08,1-5.08,4.41Z"/><path class="cls-1" d="M122.8,161.32c0-1.32.4-1.62,1.21-1.62s1.18.3,1.18,1.62V179c0,1.33-.41,1.62-1.18,1.62s-1.21-.29-1.21-1.62Zm-3.89,18c0,3.41,2.68,4.4,5.07,4.4s5.1-1,5.1-4.4V161c0-3.42-2.68-4.41-5.1-4.41s-5.07,1-5.07,4.41Z"/><path class="cls-1" d="M135,160.22H136c1,0,1.47.25,1.47,1.95v16c0,1.69-.48,1.95-1.47,1.95H135Zm-3.89,23h5.55a4.47,4.47,0,0,0,4.62-4.74V163c0-4.59-1.61-5.91-5.47-5.91h-4.7Z"/><path class="cls-1" d="M16.51,138.65h-1.8v-1.36h5.2v1.36h-1.8v16.18h-1.6Z"/><path class="cls-1" d="M26.56,137.29h4.26v1.36H28.17V145H30.7v1.36H28.17v7.07h2.65v1.36H26.56Z"/><path class="cls-1" d="M42,137.29h1.4v17.54H41.12l-2-15.6h-.05v15.6h-1.4V137.29H40l2,15h0Z"/><path class="cls-1" d="M52.35,153.47V138.65h.85c1.07,0,1.41.34,1.41,1.36v12.1c0,1-.34,1.36-1.41,1.36Zm-1.61,1.36h2.75c2.19,0,2.72-1.12,2.72-2.84V140.13c0-1.72-.53-2.84-2.72-2.84H50.74Z"/><path class="cls-1" d="M63.62,137.29h4.25v1.36H65.23V145h2.52v1.36H65.23v7.07h2.64v1.36H63.62Z"/><path class="cls-1" d="M76.38,145v-6.39h.9c.82,0,1.36.17,1.36,1.19v3.93c0,1-.44,1.27-1.19,1.27Zm2.33,9.79h1.61v-7.51c0-1.21-.68-1.55-1.83-1.63v0c1.24-.08,1.75-.54,1.75-1.9V139.3c0-1.75-.95-2-2.48-2h-3v17.54h1.61V146.4h1.07c.75,0,1.26.22,1.26,1.07Z"/><path class="cls-1" d="M87.73,137.29h1.6v16.18H92v1.36H87.73Z"/><path class="cls-1" d="M100.48,140.15c0-1,.2-1.65,1.22-1.65s1.21.68,1.21,1.65V152c0,1-.19,1.66-1.21,1.66s-1.22-.68-1.22-1.66ZM98.88,152c0,1.73.66,3,2.82,3s2.82-1.24,2.82-3V140.1c0-1.72-.66-3-2.82-3s-2.82,1.24-2.82,3Z"/><path class="cls-1" d="M111.86,137.29h1.6v17.54h-1.6Z"/><path class="cls-1" d="M125.08,137.29h1.41v17.54H124.2l-2-15.6h0v15.6h-1.41V137.29h2.33l2,15h0Z"/><path class="cls-1" d="M16.12,203.07V188.25H17c1.08,0,1.41.34,1.41,1.36v12.1c0,1-.33,1.36-1.41,1.36Zm-1.61,1.36h2.75c2.18,0,2.72-1.11,2.72-2.84V189.73c0-1.72-.54-2.84-2.72-2.84H14.51Z"/><path class="cls-1" d="M25.93,186.89h4.25v1.36H27.54v6.39h2.52V196H27.54v7.07h2.64v1.36H25.93Z"/><path class="cls-1" d="M39.37,186.89H41l-2,17.54H36.6l-2-17.54h1.6l1.58,15.94h0Z"/><path class="cls-1" d="M45.79,186.89H50v1.36H47.39v6.39h2.53V196H47.39v7.07H50v1.36H45.79Z"/><path class="cls-1" d="M55.48,186.89h1.6v16.18h2.65v1.36H55.48Z"/><path class="cls-1" d="M66.78,189.76c0-1,.19-1.66,1.21-1.66s1.22.68,1.22,1.66v11.81c0,1-.2,1.65-1.22,1.65s-1.21-.68-1.21-1.65Zm-1.6,11.85c0,1.73.65,3,2.81,3s2.82-1.24,2.82-3v-11.9c0-1.73-.65-3-2.82-3s-2.81,1.24-2.81,3Z"/><path class="cls-1" d="M78.3,195.18v-6.93h.78c.72,0,1.23.19,1.23,1.09v4.74c0,.9-.51,1.1-1.23,1.1Zm-1.61,9.25H78.3v-7.89h1c2.06,0,2.67-.69,2.67-2.68v-4.3c0-2-.61-2.67-2.67-2.67H76.69Z"/><path class="cls-1" d="M92.83,186.89h2.48v17.54H93.9V188.25h-.05L92,204.43H90l-1.85-16.18h0v16.18H86.7V186.89h2.48l1.8,15.7h0Z"/><path class="cls-1" d="M101,186.89h4.25v1.36h-2.64v6.39h2.52V196h-2.52v7.07h2.64v1.36H101Z"/><path class="cls-1" d="M115,186.89h1.41v17.54h-2.28l-2-15.6h-.05v15.6h-1.41V186.89H113l2,15h0Z"/><path class="cls-1" d="M123.35,188.25h-1.8v-1.36h5.2v1.36H125v16.18h-1.6Z"/></g></g></svg>