<?xml version="1.0" encoding="UTF-8"?>
<svg width="570px" height="366px" viewBox="0 0 570 366" version="1.1" xmlns="http://www.w3.org/2000/svg" xmlns:xlink="http://www.w3.org/1999/xlink">
    <!-- Generator: Sketch 51.2 (57519) - http://www.bohemiancoding.com/sketch -->
    <title>Total Expenses@1x</title>
    <desc>Created with Sketch.</desc>
    <defs></defs>
    <g id="page-1" stroke="none" stroke-width="1" fill="none" fill-rule="evenodd">
        <g id="tndc_home_01" transform="translate(-427.000000, -6164.000000)">
            <g id="Financials" transform="translate(1.000000, 5584.000000)">
                <g id="pies" transform="translate(426.000000, 169.000000)">
                    <g id="Total-Expenses" transform="translate(0.000000, 411.000000)">
                        <g transform="translate(144.000000, 64.000000)" id="Shape">
                            <path d="M148.133721,143.72093 L150.313953,3.48837209 L150.313953,0.906976744 L152.930233,0.906976744 C234.767442,0.906976744 298.866279,65.9476744 298.866279,148.988372 C299.093936,203.112159 269.829373,253.065125 222.505814,279.331395" fill="#ED5D26" fill-rule="nonzero"></path>
                            <path d="M148.133721,143.72093 L150.313953,3.48837209 L150.313953,0.906976744 L152.930233,0.906976744 C234.767442,0.906976744 298.866279,65.9476744 298.866279,148.988372 C299.093936,203.112159 269.829373,253.065125 222.505814,279.331395" stroke="#323E48" stroke-width="6"></path>
                            <path d="M147.976744,141.366279 L98.005814,14.2674419 L97.1162791,11.8430233 L99.5406977,10.8837209 C116.395335,4.12827053 134.406475,0.72748292 152.563953,0.872093023 L155.215116,0.872093023 L155.215116,3.52325581 L153.139535,140.44186 L152.930233,153.697674 L147.976744,141.366279 Z" fill="#274E9D" fill-rule="nonzero"></path>
                            <path d="M147.976744,141.366279 L98.005814,14.2674419 L97.1162791,11.8430233 L99.5406977,10.8837209 C116.395335,4.12827053 134.406475,0.72748292 152.563953,0.872093023 L155.215116,0.872093023 L155.215116,3.52325581 L153.139535,140.44186 L152.930233,153.697674 L147.976744,141.366279 Z" stroke="#323E48" stroke-width="6" stroke-linecap="round"></path>
                            <path d="M148.046512,153.156977 L12.75,99.5930233 L10.3255814,98.6337209 L11.2848837,96.2093023 C26.2939019,58.2252995 56.2860079,28.1007084 94.2034884,12.9244186 L96.627907,11.9651163 L97.5872093,14.3895349 L151.430233,149.773256 L153.680233,155.389535 L148.046512,153.156977 Z" fill="#99CE85" fill-rule="nonzero"></path>
                            <path d="M148.046512,153.156977 L12.75,99.5930233 L10.3255814,98.6337209 L11.2848837,96.2093023 C26.2939019,58.2252995 56.2860079,28.1007084 94.2034884,12.9244186 L96.627907,11.9651163 L97.5872093,14.3895349 L151.430233,149.773256 L153.680233,155.389535 L148.046512,153.156977 Z" stroke="#323E48" stroke-width="6" stroke-linecap="round"></path>
                            <path d="M150.680233,152.755814 L38.5639535,245.494186 C38.0312993,245.939873 37.342413,246.153814 36.6509928,246.088276 C35.9595726,246.022739 35.3231511,245.683176 34.8837209,245.145349 C0.43985224,203.520954 -8.60416367,146.442719 11.2848837,96.2093023 C11.5405049,95.5418095 12.056444,95.0068779 12.7142642,94.7273043 C13.3720844,94.4477307 14.1152836,94.4475286 14.7732558,94.7267442 L149.965116,148.30814 C150.834432,148.636132 151.456109,149.411557 151.587209,150.331395 C151.73385,151.242958 151.389167,152.164322 150.680233,152.755814" fill="#29A3B8" fill-rule="nonzero"></path>
                            <path d="M150.680233,152.755814 L38.5639535,245.494186 C38.0312993,245.939873 37.342413,246.153814 36.6509928,246.088276 C35.9595726,246.022739 35.3231511,245.683176 34.8837209,245.145349 C0.43985224,203.520954 -8.60416367,146.442719 11.2848837,96.2093023 C11.5405049,95.5418095 12.056444,95.0068779 12.7142642,94.7273043 C13.3720844,94.4477307 14.1152836,94.4475286 14.7732558,94.7267442 L149.965116,148.30814 C150.834432,148.636132 151.456109,149.411557 151.587209,150.331395 C151.73385,151.242958 151.389167,152.164322 150.680233,152.755814 Z" stroke="#323E48" stroke-width="6" stroke-linejoin="round"></path>
                            <path d="M151.290698,149.424419 L221.389535,276.924419 L222.662791,279.226744 L220.360465,280.482558 C158.052976,314.694932 80.2310656,299.86962 34.8662791,245.145349 L33.2093023,243.139535 L35.2151163,241.395349 L147.331395,148.709302 L149.773256,146.703488 L151.290698,149.424419 Z" fill="#FCD98C" fill-rule="nonzero"></path>
                            <path d="M151.290698,149.424419 L221.389535,276.924419 L222.662791,279.226744 L220.360465,280.482558 C158.052976,314.694932 80.2310656,299.86962 34.8662791,245.145349 L33.2093023,243.139535 L35.2151163,241.395349 L147.331395,148.709302 L149.773256,146.703488 L151.290698,149.424419 Z" stroke="#323E48" stroke-width="6"></path>
                        </g>
                        <path d="M206,0.156206416 L217.761782,0.156206416 L217.761782,3.10460251 L213.652008,3.10460251 L213.652008,13.8437936 L210.070633,13.8437936 L210.070633,3.10460251 L206,3.10460251 L206,0.156206416 Z M224.376561,0.0585774059 C228.623327,0.0585774059 231.793724,3.0264993 231.793724,6.9902371 C231.793724,10.9930265 228.623327,14 224.376561,14 C220.129794,14 216.959397,10.9930265 216.959397,6.9902371 C216.959397,3.0069735 220.129794,0.0585774059 224.376561,0.0585774059 Z M224.415701,3.10460251 C222.360814,3.10460251 220.638623,4.78382148 220.638623,7.0097629 C220.638623,9.23570432 222.380385,10.9539749 224.415701,10.9539749 C226.470588,10.9539749 228.114498,9.23570432 228.114498,7.0097629 C228.114498,4.78382148 226.470588,3.10460251 224.415701,3.10460251 Z M231.480598,0.156206416 L243.24238,0.156206416 L243.24238,3.10460251 L239.132606,3.10460251 L239.132606,13.8437936 L235.551232,13.8437936 L235.551232,3.10460251 L231.480598,3.10460251 L231.480598,0.156206416 Z M251.833764,13.8437936 L250.894388,11.4225941 L244.964571,11.4225941 L244.005624,13.8437936 L240.326397,13.8437936 L246.217073,0.156206416 L249.8963,0.156206416 L255.649983,13.8437936 L251.833764,13.8437936 Z M246.04094,8.68898187 L249.837589,8.68898187 L247.958835,3.80753138 L246.04094,8.68898187 Z M256.882915,0.156206416 L260.46429,0.156206416 L260.46429,10.7977685 L266.276684,10.7977685 L266.276684,13.8437936 L256.882915,13.8437936 L256.882915,0.156206416 Z M273.772129,0.156206416 L284.594534,0.156206416 L284.594534,3.0069735 L277.353504,3.0069735 L277.353504,5.56485356 L283.890001,5.56485356 L283.890001,8.39609484 L277.353504,8.41562064 L277.353504,10.9930265 L284.790237,10.9930265 L284.790237,13.8437936 L273.772129,13.8437936 L273.772129,0.156206416 Z M286.04274,0.156206416 L290.211225,0.156206416 L292.774941,4.041841 L295.358227,0.156206416 L299.585423,0.156206416 L295.064672,6.69735007 L299.976831,13.8437936 L295.690923,13.8437936 L292.774941,9.60669456 L289.91767,13.8437936 L285.729614,13.8437936 L290.602632,6.87308229 L286.04274,0.156206416 Z M307.452705,0.156206416 C310.955798,0.156206416 312.971544,1.91352859 312.971544,4.9595537 C312.971544,8.18131102 310.955798,10.055788 307.452705,10.055788 L305.006411,10.055788 L305.006411,13.8437936 L301.425037,13.8437936 L301.425037,0.156206416 L307.452705,0.156206416 Z M307.276572,7.20502092 C308.724778,7.20502092 309.566303,6.46304045 309.566303,5.07670851 C309.566303,3.72942817 308.724778,3.0069735 307.276572,3.0069735 L305.006411,3.0069735 L305.006411,7.20502092 L307.276572,7.20502092 Z M314.732876,0.156206416 L325.555281,0.156206416 L325.555281,3.0069735 L318.31425,3.0069735 L318.31425,5.56485356 L324.850748,5.56485356 L324.850748,8.39609484 L318.31425,8.41562064 L318.31425,10.9930265 L325.750984,10.9930265 L325.750984,13.8437936 L314.732876,13.8437936 L314.732876,0.156206416 Z M327.942864,0.156206416 L331.09369,0.156206416 L337.317062,8.39609484 L337.317062,0.156206416 L340.644022,0.156206416 L340.644022,13.8437936 L337.512766,13.8437936 L331.289394,5.64295676 L331.289394,13.8437936 L327.942864,13.8437936 L327.942864,0.156206416 Z M352.77764,4.37377964 C351.329434,3.55369596 349.489821,2.90934449 348.354741,2.90934449 C347.493645,2.90934449 346.926105,3.22175732 346.926105,3.84658298 C346.926105,6.11157601 354.147565,4.82287308 354.147565,9.74337517 C354.147565,12.5355649 351.681701,13.9609484 348.628726,13.9609484 C346.338994,13.9609484 343.951412,13.1213389 342.307502,11.7740586 L343.696997,8.9818689 C345.106062,10.1924686 347.239231,11.0516039 348.667866,11.0516039 C349.724665,11.0516039 350.390057,10.6610879 350.390057,9.93863319 C350.390057,7.61506276 343.168597,9.0209205 343.168597,4.17852162 C343.168597,1.62064156 345.340907,0 348.648296,0 C350.664042,0 352.699359,0.624825662 354.127995,1.54253835 L352.77764,4.37377964 Z M355.967608,0.156206416 L366.790012,0.156206416 L366.790012,3.0069735 L359.548982,3.0069735 L359.548982,5.56485356 L366.08548,5.56485356 L366.08548,8.39609484 L359.548982,8.41562064 L359.548982,10.9930265 L366.985716,10.9930265 L366.985716,13.8437936 L355.967608,13.8437936 L355.967608,0.156206416 Z M378.630075,4.37377964 C377.181869,3.55369596 375.342256,2.90934449 374.207176,2.90934449 C373.34608,2.90934449 372.77854,3.22175732 372.77854,3.84658298 C372.77854,6.11157601 380,4.82287308 380,9.74337517 C380,12.5355649 377.534136,13.9609484 374.481161,13.9609484 C372.19143,13.9609484 369.803847,13.1213389 368.159937,11.7740586 L369.549432,8.9818689 C370.958497,10.1924686 373.091666,11.0516039 374.520301,11.0516039 C375.5771,11.0516039 376.242492,10.6610879 376.242492,9.93863319 C376.242492,7.61506276 369.021033,9.0209205 369.021033,4.17852162 C369.021033,1.62064156 371.193342,0 374.500731,0 C376.516477,0 378.551794,0.624825662 379.98043,1.54253835 L378.630075,4.37377964 Z" id="TOTAL-EXPENSES-" fill="#FFFFFE"></path>
                        <path d="M238.754564,35.6550696 C238.754564,38.4671968 236.617491,40.1133201 233.752904,40.5019881 L233.752904,44 L230.729174,44 L230.729174,40.4791252 C228.592101,40.1819085 226.523233,39.2902584 225,38.0328032 L226.614172,34.7634195 C228.251079,36.1809145 230.729174,37.1868787 232.388815,37.1868787 C233.616495,37.1868787 234.389479,36.7296223 234.389479,35.8836978 C234.389479,33.1630219 226.000332,34.8091451 226.000332,29.139165 C226.000332,26.6013917 227.819117,24.8409543 230.729174,24.360835 L230.729174,21 L233.752904,21 L233.752904,24.3379722 C235.617159,24.5437376 237.390475,25.1838966 238.731829,26.0526839 L237.163126,29.3677932 C235.48075,28.4075547 233.343677,27.6530815 232.025058,27.6530815 C231.024726,27.6530815 230.365417,28.0188867 230.365417,28.750497 C230.365417,31.4025845 238.754564,29.8936382 238.754564,35.6550696 Z M241.414537,24.4294235 L248.644208,24.4294235 L248.644208,40.4562624 L244.483737,40.4562624 L244.483737,27.8588469 L241.414537,27.8588469 L241.414537,24.4294235 Z M258.94308,30.2365805 C259.284102,30.2137177 260.057086,30.2137177 260.375373,30.2137177 C264.126618,30.2137177 266.559243,32.2027833 266.559243,35.0606362 C266.559243,38.444334 263.990209,40.639165 260.057086,40.639165 C257.920013,40.639165 255.464653,39.8389662 253.736807,38.6272366 L255.396449,35.3807157 C256.646864,36.7067594 258.101892,37.3926441 259.55692,37.3926441 C261.171092,37.3926441 262.080485,36.6610338 262.080485,35.3578529 C262.080485,34.1461233 261.171092,33.4602386 259.579655,33.4602386 C258.738467,33.4602386 256.123963,33.4831014 255.123631,33.5516899 L255.123631,24.4065606 L265.831729,24.4065606 L265.831729,27.7902584 L258.94308,27.7902584 L258.94308,30.2365805 Z M270.174079,36.7067594 C271.197146,36.7067594 272.106538,37.3926441 272.106538,38.6500994 C272.106538,39.2445328 271.87919,39.7475149 271.583638,40.2047714 L269.878526,42.6968191 L267.968802,42.6968191 L268.991869,40.1819085 C268.491703,39.8389662 268.24162,39.2673956 268.24162,38.6500994 C268.24162,37.5069583 269.060073,36.7067594 270.174079,36.7067594 Z M275.334882,36.4324056 C276.244275,37.0954274 277.40375,37.4612326 278.608696,37.4612326 C281.086791,37.4612326 282.291736,35.860835 282.246266,33.2316103 C281.496017,34.306163 280.268337,34.9691849 278.540491,34.9691849 C275.448556,34.9691849 273.493362,32.888668 273.493362,29.7564612 C273.493362,26.3727634 275.812313,24.2465209 279.33621,24.2465209 C283.542151,24.2465209 286.08845,27.2644135 286.08845,32.1799205 C286.08845,37.3011928 283.269333,40.639165 278.858779,40.639165 C277.108198,40.639165 275.130269,40.1133201 273.788915,39.3131213 L275.334882,36.4324056 Z M279.495353,27.5159046 C278.085795,27.5159046 277.221872,28.3389662 277.221872,29.7793241 C277.221872,31.1510934 278.01759,31.9741551 279.427149,31.9741551 C280.973116,31.9741551 281.814305,31.0139165 281.79157,29.7107356 C281.814305,28.5447316 281.086791,27.5159046 279.495353,27.5159046 Z M289.021241,24.4294235 L296.250913,24.4294235 L296.250913,40.4562624 L292.090441,40.4562624 L292.090441,27.8588469 L289.021241,27.8588469 L289.021241,24.4294235 Z M306.322436,24.4065606 L310.278294,24.4065606 L305.845005,33.8031809 L308.823266,33.8031809 L308.800531,30.4194831 L312.61998,30.4194831 L312.61998,33.8031809 L314.666114,33.8031809 L314.666114,36.9811133 L312.61998,36.9811133 L312.61998,40.4562624 L308.800531,40.4562624 L308.800531,36.9811133 L301.593594,36.9811133 L301.593594,34.1689861 L306.322436,24.4065606 Z M317.780783,36.7067594 C318.80385,36.7067594 319.713243,37.3926441 319.713243,38.6500994 C319.713243,39.2445328 319.485894,39.7475149 319.190342,40.2047714 L317.485231,42.6968191 L315.575506,42.6968191 L316.598573,40.1819085 C316.098407,39.8389662 315.848324,39.2673956 315.848324,38.6500994 C315.848324,37.5069583 316.666777,36.7067594 317.780783,36.7067594 Z M326.101726,30.2365805 C326.442748,30.2137177 327.215732,30.2137177 327.534019,30.2137177 C331.285264,30.2137177 333.717889,32.2027833 333.717889,35.0606362 C333.717889,38.444334 331.148855,40.639165 327.215732,40.639165 C325.078659,40.639165 322.623299,39.8389662 320.895453,38.6272366 L322.555095,35.3807157 C323.805509,36.7067594 325.260538,37.3926441 326.715566,37.3926441 C328.329738,37.3926441 329.23913,36.6610338 329.23913,35.3578529 C329.23913,34.1461233 328.329738,33.4602386 326.738301,33.4602386 C325.897113,33.4602386 323.282609,33.4831014 322.282277,33.5516899 L322.282277,24.4065606 L332.990375,24.4065606 L332.990375,27.7902584 L326.101726,27.7902584 L326.101726,30.2365805 Z M341.561401,24.3151093 C345.562728,24.3151093 347.79074,27.195825 347.79074,32.4314115 C347.79074,37.666998 345.562728,40.5705765 341.561401,40.5705765 C337.514603,40.5705765 335.309326,37.666998 335.309326,32.4314115 C335.309326,27.195825 337.514603,24.3151093 341.561401,24.3151093 Z M341.561401,27.2415507 C339.947229,27.2415507 339.287919,28.750497 339.287919,32.4314115 C339.287919,36.0894632 339.947229,37.6212724 341.561401,37.6212724 C343.152838,37.6212724 343.812147,36.0894632 343.812147,32.4314115 C343.812147,28.750497 343.152838,27.2415507 341.561401,27.2415507 Z M355.543312,24.2236581 C358.999004,24.2236581 361.181547,25.915507 361.181547,28.5675944 C361.181547,29.916501 360.454033,31.1739563 359.271822,31.859841 C360.931464,32.6143141 362,34.1461233 362,35.9294235 C362,38.8101392 359.476435,40.639165 355.566047,40.639165 C351.678394,40.639165 349.177564,38.833002 349.177564,35.9980119 C349.177564,34.1918489 350.314305,32.6143141 352.08762,31.859841 C350.791736,31.1053678 349.973282,29.8021869 349.973282,28.4532803 C349.973282,25.8697813 352.17856,24.2236581 355.543312,24.2236581 Z M355.566047,27.0357853 C354.201958,27.0357853 353.451709,27.6530815 353.451709,28.7962227 C353.451709,29.8936382 354.201958,30.5109344 355.566047,30.5109344 C356.952871,30.5109344 357.70312,29.8936382 357.70312,28.7962227 C357.70312,27.6530815 356.952871,27.0357853 355.566047,27.0357853 Z M355.588782,33.5745527 C353.951875,33.5745527 353.065217,34.2833002 353.065217,35.5636183 C353.065217,36.8667992 353.951875,37.5755467 355.566047,37.5755467 C357.202954,37.5755467 358.112346,36.8667992 358.112346,35.5636183 C358.112346,34.2833002 357.202954,33.5745527 355.588782,33.5745527 Z" id="$15,914,508" fill="#FFFFFE"></path>
                        <path d="M476.059918,149.156863 L479.456196,149.156863 L475.650023,157.215686 L478.20699,157.215686 L478.187472,154.313725 L481.466636,154.313725 L481.466636,157.215686 L483.223332,157.215686 L483.223332,159.941176 L481.466636,159.941176 L481.466636,162.921569 L478.187472,162.921569 L478.187472,159.941176 L472,159.941176 L472,157.529412 L476.059918,149.156863 Z M489.352247,155.411765 C490.113482,154.627451 490.679528,153.745098 490.679528,153.156863 C490.679528,152.411765 490.113482,151.980392 489.118021,151.980392 C488.005447,151.980392 486.600091,152.647059 485.331366,153.72549 L483.984567,151.078431 C485.741262,149.784314 487.654108,149 489.64503,149 C492.416704,149 494.427145,150.45098 494.427145,152.627451 C494.427145,154.117647 493.295052,155.666667 491.772583,157.215686 L488.96187,160.039216 L494.817522,160.039216 L494.817522,162.921569 L484.394462,162.921569 L484.374943,160.54902 L489.352247,155.411765 Z M499.970495,149.117647 C502.312755,149.117647 503.796187,150.72549 503.796187,153.27451 C503.796187,155.843137 502.312755,157.45098 499.970495,157.45098 C497.628234,157.45098 496.144803,155.843137 496.144803,153.27451 C496.144803,150.72549 497.628234,149.117647 499.970495,149.117647 Z M508.773491,149.176471 L512.033137,149.176471 L502.293236,162.921569 L499.033591,162.921569 L508.773491,149.176471 Z M499.970495,151.019608 C498.955515,151.019608 498.350431,151.862745 498.350431,153.27451 C498.350431,154.686275 498.955515,155.54902 499.970495,155.54902 C500.985474,155.54902 501.590558,154.686275 501.590558,153.27451 C501.590558,151.862745 500.985474,151.019608 499.970495,151.019608 Z M511.174308,154.666667 C513.516568,154.666667 515,156.27451 515,158.823529 C515,161.392157 513.516568,163 511.174308,163 C508.832047,163 507.348616,161.392157 507.348616,158.823529 C507.348616,156.27451 508.832047,154.666667 511.174308,154.666667 Z M511.174308,156.568627 C510.159328,156.568627 509.554244,157.411765 509.554244,158.823529 C509.554244,160.235294 510.159328,161.098039 511.174308,161.098039 C512.189287,161.098039 512.794371,160.235294 512.794371,158.823529 C512.794371,157.411765 512.189287,156.568627 511.174308,156.568627 Z" id="42%" fill="#FFFFFE"></path>
                        <path d="M478.361188,174.230986 C477.378565,173.647887 476.395943,173.407042 475.710693,173.407042 C474.818575,173.407042 474.236759,173.73662 474.236759,174.332394 C474.236759,176.271831 479.124013,175.232394 479.111084,178.426761 C479.111084,180.011268 477.688867,180.987324 475.697764,180.987324 C474.275547,180.987324 472.930906,180.416901 472,179.580282 L472.659391,178.287324 C473.590297,179.123944 474.753929,179.580282 475.723622,179.580282 C476.78382,179.580282 477.417353,179.187324 477.417353,178.502817 C477.417353,176.525352 472.530099,177.628169 472.530099,174.471831 C472.530099,172.950704 473.861811,172 475.827056,172 C477.003617,172 478.15432,172.367606 478.994721,172.912676 L478.361188,174.230986 Z M480.895319,172.06338 L487.359941,172.06338 L487.359941,173.407042 L482.42097,173.407042 L482.42097,175.815493 L486.842771,175.815493 L486.842771,177.146479 L482.42097,177.146479 L482.42097,179.592958 L487.515092,179.592958 L487.515092,180.93662 L480.895319,180.93662 L480.895319,172.06338 Z M496.850005,180.93662 L495.117487,180.93662 L493.462544,178.249296 C493.333251,178.261972 493.19103,178.261972 493.048808,178.261972 L490.902554,178.261972 L490.902554,180.93662 L489.376903,180.93662 L489.376903,172.06338 L493.048808,172.06338 C495.363142,172.06338 496.694854,173.166197 496.694854,175.092958 C496.694854,176.512676 496.022534,177.514085 494.820114,177.970423 L496.850005,180.93662 Z M490.902554,176.91831 L493.048808,176.91831 C494.445166,176.91831 495.246779,176.335211 495.246779,175.130986 C495.246779,173.964789 494.445166,173.407042 493.048808,173.407042 L490.902554,173.407042 L490.902554,176.91831 Z M497.367175,172.06338 L499.009189,172.06338 L501.801906,179.276056 L504.620481,172.06338 L506.210777,172.06338 L502.551802,180.93662 L500.974434,180.93662 L497.367175,172.06338 Z M507.439056,172.06338 L508.964706,172.06338 L508.964706,180.93662 L507.439056,180.93662 L507.439056,172.06338 Z M517.898813,174.484507 C517.239422,173.787324 516.295587,173.356338 515.377611,173.356338 C513.567517,173.356338 512.1453,174.725352 512.1453,176.474648 C512.1453,178.223944 513.567517,179.605634 515.377611,179.605634 C516.282658,179.605634 517.213563,179.2 517.898813,178.553521 L518.80386,179.542254 C517.885884,180.429577 516.58003,181 515.300035,181 C512.649541,181 510.593791,179.035211 510.593791,176.487324 C510.593791,173.964789 512.675399,172.025352 515.351752,172.025352 C516.631747,172.025352 517.911743,172.54507 518.790931,173.394366 L517.898813,174.484507 Z M520.355369,172.06338 L526.819991,172.06338 L526.819991,173.407042 L521.88102,173.407042 L521.88102,175.815493 L526.302821,175.815493 L526.302821,177.146479 L521.88102,177.146479 L521.88102,179.592958 L526.975142,179.592958 L526.975142,180.93662 L520.355369,180.93662 L520.355369,172.06338 Z M534.344811,174.230986 C533.362188,173.647887 532.379566,173.407042 531.694316,173.407042 C530.802198,173.407042 530.220382,173.73662 530.220382,174.332394 C530.220382,176.271831 535.107636,175.232394 535.094707,178.426761 C535.094707,180.011268 533.67249,180.987324 531.681387,180.987324 C530.25917,180.987324 528.914528,180.416901 527.983623,179.580282 L528.643014,178.287324 C529.57392,179.123944 530.737552,179.580282 531.707245,179.580282 C532.767443,179.580282 533.400976,179.187324 533.400976,178.502817 C533.400976,176.525352 528.513722,177.628169 528.513722,174.471831 C528.513722,172.950704 529.845434,172 531.810679,172 C532.98724,172 534.137943,172.367606 534.978344,172.912676 L534.344811,174.230986 Z M539.684588,172.06338 L546.937893,172.06338 L546.937893,173.407042 L544.067601,173.407042 L544.067601,180.93662 L542.541951,180.93662 L542.541951,173.407042 L539.684588,173.407042 L539.684588,172.06338 Z M551.203251,172.025352 C553.905463,172.025352 556,173.964789 556,176.5 C556,179.035211 553.905463,181 551.203251,181 C548.501039,181 546.406502,179.035211 546.406502,176.5 C546.406502,173.952113 548.501039,172.025352 551.203251,172.025352 Z M551.21618,173.369014 C549.431944,173.369014 547.958011,174.738028 547.958011,176.5 C547.958011,178.261972 549.444874,179.656338 551.21618,179.656338 C552.987486,179.656338 554.435562,178.261972 554.435562,176.5 C554.435562,174.738028 552.987486,173.369014 551.21618,173.369014 Z" id="SERVICES-TO-" fill="#FFFFFE"></path>
                        <path d="M473,188.038136 L474.815023,188.038136 L477.80981,193.949153 L480.791633,188.038136 L482.593692,188.038136 L482.593692,196.936441 L481.180567,196.936441 L481.167602,190.288136 L478.302459,196.008475 L477.304197,196.008475 L474.439054,190.288136 L474.439054,196.936441 L473,196.936441 L473,188.038136 Z M491.720663,196.936441 L490.852045,194.927966 L486.275595,194.927966 L485.406977,196.936441 L483.81235,196.936441 L487.818364,188.038136 L489.387062,188.038136 L493.354183,196.936441 L491.720663,196.936441 Z M486.84603,193.59322 L490.268645,193.59322 L488.557338,189.639831 L486.84603,193.59322 Z M494.559877,188.038136 L496.089682,188.038136 L496.089682,196.936441 L494.559877,196.936441 L494.559877,188.038136 Z M498.47514,188.038136 L499.979016,188.038136 L504.840684,194.432203 L504.840684,188.038136 L506.34456,188.038136 L506.34456,196.936441 L504.840684,196.936441 L500.004945,190.555085 L500.004945,196.936441 L498.47514,196.936441 L498.47514,188.038136 Z M507.666934,188.038136 L514.939989,188.038136 L514.939989,189.385593 L512.061882,189.385593 L512.061882,196.936441 L510.532077,196.936441 L510.532077,189.385593 L507.666934,189.385593 L507.666934,188.038136 Z M521.188853,196.936441 L520.320235,194.927966 L515.743785,194.927966 L514.875167,196.936441 L513.28054,196.936441 L517.286554,188.038136 L518.855253,188.038136 L522.822374,196.936441 L521.188853,196.936441 Z M516.314221,193.59322 L519.736835,193.59322 L518.025528,189.639831 L516.314221,193.59322 Z M524.028067,188.038136 L525.557872,188.038136 L525.557872,196.936441 L524.028067,196.936441 L524.028067,188.038136 Z M527.943331,188.038136 L529.447207,188.038136 L534.308875,194.432203 L534.308875,188.038136 L535.812751,188.038136 L535.812751,196.936441 L534.308875,196.936441 L529.473136,190.555085 L529.473136,196.936441 L527.943331,196.936441 L527.943331,188.038136 Z M546.15838,188 C548.86795,188 550.96819,189.944915 550.96819,192.487288 C550.96819,195.029661 548.86795,197 546.15838,197 C543.44881,197 541.34857,195.029661 541.34857,192.487288 C541.34857,189.932203 543.44881,188 546.15838,188 Z M546.171345,189.347458 C544.382251,189.347458 542.904304,190.720339 542.904304,192.487288 C542.904304,194.254237 544.395215,195.652542 546.171345,195.652542 C547.947474,195.652542 549.399492,194.254237 549.399492,192.487288 C549.399492,190.720339 547.947474,189.347458 546.171345,189.347458 Z M553.950013,193.25 C553.950013,194.75 554.896418,195.652542 556.38733,195.652542 C557.865277,195.652542 558.785752,194.762712 558.785752,193.25 L558.785752,188.038136 L560.315557,188.038136 L560.315557,193.25 C560.315557,195.576271 558.824646,197 556.374365,197 C553.924084,197 552.420209,195.576271 552.420209,193.25 L552.420209,188.038136 L553.950013,188.038136 L553.950013,193.25 Z M570,196.936441 L568.262764,196.936441 L566.603315,194.241525 C566.47367,194.254237 566.331061,194.254237 566.188452,194.254237 L564.036354,194.254237 L564.036354,196.936441 L562.506549,196.936441 L562.506549,188.038136 L566.188452,188.038136 C568.509088,188.038136 569.844427,189.144068 569.844427,191.076271 C569.844427,192.5 569.170275,193.504237 567.964582,193.961864 L570,196.936441 Z M564.036354,192.90678 L566.188452,192.90678 C567.588613,192.90678 568.392408,192.322034 568.392408,191.114407 C568.392408,189.944915 567.588613,189.385593 566.188452,189.385593 L564.036354,189.385593 L564.036354,192.90678 Z" id="MAINTAIN-OUR-" fill="#FFFFFE"></path>
                        <path d="M476.93491,204.06338 C478.811758,204.06338 479.976699,204.9 479.976699,206.28169 C479.976699,207.270423 479.368341,208.01831 478.384613,208.259155 C479.601329,208.461972 480.326181,209.311268 480.326181,210.502817 C480.326181,212.023944 479.070634,212.93662 477.025516,212.93662 L473,212.93662 L473,204.06338 L476.93491,204.06338 Z M476.857247,207.739437 C477.828031,207.739437 478.410501,207.308451 478.410501,206.547887 C478.410501,205.812676 477.828031,205.394366 476.857247,205.407042 L474.527366,205.407042 L474.527366,207.739437 L476.857247,207.739437 Z M476.857247,211.592958 C478.048075,211.605634 478.759983,211.13662 478.759983,210.312676 C478.759983,209.526761 478.048075,209.04507 476.857247,209.057746 L474.527366,209.057746 L474.527366,211.592958 L476.857247,211.592958 Z M483.484464,209.260563 C483.484464,210.756338 484.42936,211.656338 485.917895,211.656338 C487.393486,211.656338 488.312494,210.769014 488.312494,209.260563 L488.312494,204.06338 L489.839861,204.06338 L489.839861,209.260563 C489.839861,211.580282 488.351326,213 485.904951,213 C483.458576,213 481.957097,211.580282 481.957097,209.260563 L481.957097,204.06338 L483.484464,204.06338 L483.484464,209.260563 Z M492.02736,204.06338 L493.554726,204.06338 L493.554726,212.93662 L492.02736,212.93662 L492.02736,204.06338 Z M495.936382,204.06338 L497.463748,204.06338 L497.463748,211.580282 L501.385714,211.580282 L501.385714,212.93662 L495.936382,212.93662 L495.936382,204.06338 Z M506.563227,204.06338 C509.281422,204.06338 511.248877,205.926761 511.248877,208.5 C511.248877,211.060563 509.268478,212.93662 506.524396,212.93662 L502.848362,212.93662 L502.848362,204.06338 L506.563227,204.06338 Z M506.602059,211.592958 C508.362413,211.592958 509.708566,210.312676 509.708566,208.512676 C509.708566,206.7 508.323582,205.407042 506.53734,205.407042 L504.375728,205.407042 L504.375728,211.592958 L506.602059,211.592958 Z M512.879793,204.06338 L514.407159,204.06338 L514.407159,212.93662 L512.879793,212.93662 L512.879793,204.06338 Z M516.788815,204.06338 L518.290294,204.06338 L523.144212,210.439437 L523.144212,204.06338 L524.645691,204.06338 L524.645691,212.93662 L523.144212,212.93662 L518.316182,206.573239 L518.316182,212.93662 L516.788815,212.93662 L516.788815,204.06338 Z M533.240363,211.047887 L533.240363,208.576056 L534.573572,208.576056 L534.573572,211.846479 C533.654564,212.530986 532.295466,213 531.052863,213 C528.3735,213 526.289551,211.035211 526.289551,208.5 C526.289551,205.964789 528.399388,204.025352 531.14347,204.025352 C532.437848,204.025352 533.732226,204.507042 534.625347,205.267606 L533.758114,206.370423 C533.05915,205.73662 532.088366,205.356338 531.14347,205.356338 C529.292509,205.356338 527.842805,206.738028 527.842805,208.5 C527.842805,210.274648 529.305453,211.656338 531.156414,211.656338 C531.82949,211.656338 532.593173,211.428169 533.240363,211.047887 Z M542.249235,206.230986 C541.265508,205.647887 540.28178,205.407042 539.59576,205.407042 C538.702639,205.407042 538.120168,205.73662 538.120168,206.332394 C538.120168,208.271831 543.012918,207.232394 542.999974,210.426761 C542.999974,212.011268 541.576158,212.987324 539.582816,212.987324 C538.159,212.987324 536.812846,212.416901 535.880894,211.580282 L536.541027,210.287324 C537.472979,211.123944 538.63792,211.580282 539.608703,211.580282 C540.670094,211.580282 541.304339,211.187324 541.304339,210.502817 C541.304339,208.525352 536.411589,209.628169 536.411589,206.471831 C536.411589,204.950704 537.744799,204 539.712254,204 C540.890138,204 542.042134,204.367606 542.88348,204.912676 L542.249235,206.230986 Z" id="BUILDINGS" fill="#FFFFFE"></path>
                        <path d="M477.360381,251.411765 C478.12058,250.627451 478.685857,249.745098 478.685857,249.156863 C478.685857,248.411765 478.12058,247.980392 477.126473,247.980392 C476.015413,247.980392 474.611967,248.647059 473.344968,249.72549 L472,247.078431 C473.754306,245.784314 475.664551,245 477.652765,245 C480.420671,245 482.428377,246.45098 482.428377,248.627451 C482.428377,250.117647 481.297824,251.666667 479.777425,253.215686 L476.970535,256.039216 L482.818223,256.039216 L482.818223,258.921569 L472.409338,258.921569 L472.389846,256.54902 L477.360381,251.411765 Z M489.387126,251.411765 C490.147325,250.627451 490.712602,249.745098 490.712602,249.156863 C490.712602,248.411765 490.147325,247.980392 489.153218,247.980392 C488.042158,247.980392 486.638713,248.647059 485.371714,249.72549 L484.026745,247.078431 C485.781052,245.784314 487.691296,245 489.67951,245 C492.447416,245 494.455122,246.45098 494.455122,248.627451 C494.455122,250.117647 493.324569,251.666667 491.80417,253.215686 L488.99728,256.039216 L494.844968,256.039216 L494.844968,258.921569 L484.436083,258.921569 L484.416591,256.54902 L489.387126,251.411765 Z M499.990934,245.117647 C502.330009,245.117647 503.811423,246.72549 503.811423,249.27451 C503.811423,251.843137 502.330009,253.45098 499.990934,253.45098 C497.651859,253.45098 496.170444,251.843137 496.170444,249.27451 C496.170444,246.72549 497.651859,245.117647 499.990934,245.117647 Z M508.781958,245.176471 L512.037171,245.176471 L502.310517,258.921569 L499.055304,258.921569 L508.781958,245.176471 Z M499.990934,247.019608 C498.977335,247.019608 498.373073,247.862745 498.373073,249.27451 C498.373073,250.686275 498.977335,251.54902 499.990934,251.54902 C501.004533,251.54902 501.608794,250.686275 501.608794,249.27451 C501.608794,247.862745 501.004533,247.019608 499.990934,247.019608 Z M511.17951,250.666667 C513.518586,250.666667 515,252.27451 515,254.823529 C515,257.392157 513.518586,259 511.17951,259 C508.840435,259 507.359021,257.392157 507.359021,254.823529 C507.359021,252.27451 508.840435,250.666667 511.17951,250.666667 Z M511.17951,252.568627 C510.165911,252.568627 509.56165,253.411765 509.56165,254.823529 C509.56165,256.235294 510.165911,257.098039 511.17951,257.098039 C512.19311,257.098039 512.797371,256.235294 512.797371,254.823529 C512.797371,253.411765 512.19311,252.568627 511.17951,252.568627 Z" id="22%" fill="#FFFFFE"></path>
                        <path d="M478.361188,269.230986 C477.378565,268.647887 476.395943,268.407042 475.710693,268.407042 C474.818575,268.407042 474.236759,268.73662 474.236759,269.332394 C474.236759,271.271831 479.124013,270.232394 479.111084,273.426761 C479.111084,275.011268 477.688867,275.987324 475.697764,275.987324 C474.275547,275.987324 472.930906,275.416901 472,274.580282 L472.659391,273.287324 C473.590297,274.123944 474.753929,274.580282 475.723622,274.580282 C476.78382,274.580282 477.417353,274.187324 477.417353,273.502817 C477.417353,271.525352 472.530099,272.628169 472.530099,269.471831 C472.530099,267.950704 473.861811,267 475.827056,267 C477.003617,267 478.15432,267.367606 478.994721,267.912676 L478.361188,269.230986 Z M480.895319,267.06338 L487.359941,267.06338 L487.359941,268.407042 L482.42097,268.407042 L482.42097,270.815493 L486.842771,270.815493 L486.842771,272.146479 L482.42097,272.146479 L482.42097,274.592958 L487.515092,274.592958 L487.515092,275.93662 L480.895319,275.93662 L480.895319,267.06338 Z M496.850005,275.93662 L495.117487,275.93662 L493.462544,273.249296 C493.333251,273.261972 493.19103,273.261972 493.048808,273.261972 L490.902554,273.261972 L490.902554,275.93662 L489.376903,275.93662 L489.376903,267.06338 L493.048808,267.06338 C495.363142,267.06338 496.694854,268.166197 496.694854,270.092958 C496.694854,271.512676 496.022534,272.514085 494.820114,272.970423 L496.850005,275.93662 Z M490.902554,271.91831 L493.048808,271.91831 C494.445166,271.91831 495.246779,271.335211 495.246779,270.130986 C495.246779,268.964789 494.445166,268.407042 493.048808,268.407042 L490.902554,268.407042 L490.902554,271.91831 Z M497.367175,267.06338 L499.009189,267.06338 L501.801906,274.276056 L504.620481,267.06338 L506.210777,267.06338 L502.551802,275.93662 L500.974434,275.93662 L497.367175,267.06338 Z M507.439056,267.06338 L508.964706,267.06338 L508.964706,275.93662 L507.439056,275.93662 L507.439056,267.06338 Z M517.898813,269.484507 C517.239422,268.787324 516.295587,268.356338 515.377611,268.356338 C513.567517,268.356338 512.1453,269.725352 512.1453,271.474648 C512.1453,273.223944 513.567517,274.605634 515.377611,274.605634 C516.282658,274.605634 517.213563,274.2 517.898813,273.553521 L518.80386,274.542254 C517.885884,275.429577 516.58003,276 515.300035,276 C512.649541,276 510.593791,274.035211 510.593791,271.487324 C510.593791,268.964789 512.675399,267.025352 515.351752,267.025352 C516.631747,267.025352 517.911743,267.54507 518.790931,268.394366 L517.898813,269.484507 Z M520.355369,267.06338 L526.819991,267.06338 L526.819991,268.407042 L521.88102,268.407042 L521.88102,270.815493 L526.302821,270.815493 L526.302821,272.146479 L521.88102,272.146479 L521.88102,274.592958 L526.975142,274.592958 L526.975142,275.93662 L520.355369,275.93662 L520.355369,267.06338 Z M534.344811,269.230986 C533.362188,268.647887 532.379566,268.407042 531.694316,268.407042 C530.802198,268.407042 530.220382,268.73662 530.220382,269.332394 C530.220382,271.271831 535.107636,270.232394 535.094707,273.426761 C535.094707,275.011268 533.67249,275.987324 531.681387,275.987324 C530.25917,275.987324 528.914528,275.416901 527.983623,274.580282 L528.643014,273.287324 C529.57392,274.123944 530.737552,274.580282 531.707245,274.580282 C532.767443,274.580282 533.400976,274.187324 533.400976,273.502817 C533.400976,271.525352 528.513722,272.628169 528.513722,269.471831 C528.513722,267.950704 529.845434,267 531.810679,267 C532.98724,267 534.137943,267.367606 534.978344,267.912676 L534.344811,269.230986 Z M539.684588,267.06338 L546.937893,267.06338 L546.937893,268.407042 L544.067601,268.407042 L544.067601,275.93662 L542.541951,275.93662 L542.541951,268.407042 L539.684588,268.407042 L539.684588,267.06338 Z M551.203251,267.025352 C553.905463,267.025352 556,268.964789 556,271.5 C556,274.035211 553.905463,276 551.203251,276 C548.501039,276 546.406502,274.035211 546.406502,271.5 C546.406502,268.952113 548.501039,267.025352 551.203251,267.025352 Z M551.21618,268.369014 C549.431944,268.369014 547.958011,269.738028 547.958011,271.5 C547.958011,273.261972 549.444874,274.656338 551.21618,274.656338 C552.987486,274.656338 554.435562,273.261972 554.435562,271.5 C554.435562,269.738028 552.987486,268.369014 551.21618,268.369014 Z" id="SERVICES-TO" fill="#FFFFFE"></path>
                        <path d="M478.445415,285.230986 C477.449782,284.647887 476.454148,284.407042 475.759825,284.407042 C474.855895,284.407042 474.266376,284.73662 474.266376,285.332394 C474.266376,287.271831 479.218341,286.232394 479.20524,289.426761 C479.20524,291.011268 477.764192,291.987324 475.746725,291.987324 C474.305677,291.987324 472.943231,291.416901 472,290.580282 L472.668122,289.287324 C473.611354,290.123944 474.790393,290.580282 475.772926,290.580282 C476.847162,290.580282 477.489083,290.187324 477.489083,289.502817 C477.489083,287.525352 472.537118,288.628169 472.537118,285.471831 C472.537118,283.950704 473.886463,283 475.877729,283 C477.069869,283 478.235808,283.367606 479.087336,283.912676 L478.445415,285.230986 Z M482.375546,288.260563 C482.375546,289.756338 483.331878,290.656338 484.838428,290.656338 C486.331878,290.656338 487.262009,289.769014 487.262009,288.260563 L487.262009,283.06338 L488.80786,283.06338 L488.80786,288.260563 C488.80786,290.580282 487.30131,292 484.825328,292 C482.349345,292 480.829694,290.580282 480.829694,288.260563 L480.829694,283.06338 L482.375546,283.06338 L482.375546,288.260563 Z M494.676856,283.06338 C496.982533,283.06338 498.305677,284.166197 498.305677,286.092958 C498.305677,288.095775 496.982533,289.261972 494.676856,289.261972 L492.567686,289.261972 L492.567686,291.93662 L491.021834,291.93662 L491.021834,283.06338 L494.676856,283.06338 Z M494.611354,287.91831 C496.026201,287.91831 496.825328,287.335211 496.825328,286.130986 C496.825328,284.964789 496.026201,284.407042 494.611354,284.407042 L492.567686,284.407042 L492.567686,287.91831 L494.611354,287.91831 Z M503.49345,283.06338 C505.799127,283.06338 507.122271,284.166197 507.122271,286.092958 C507.122271,288.095775 505.799127,289.261972 503.49345,289.261972 L501.384279,289.261972 L501.384279,291.93662 L499.838428,291.93662 L499.838428,283.06338 L503.49345,283.06338 Z M503.427948,287.91831 C504.842795,287.91831 505.641921,287.335211 505.641921,286.130986 C505.641921,284.964789 504.842795,284.407042 503.427948,284.407042 L501.384279,284.407042 L501.384279,287.91831 L503.427948,287.91831 Z M512.755459,283.025352 C515.49345,283.025352 517.615721,284.964789 517.615721,287.5 C517.615721,290.035211 515.49345,292 512.755459,292 C510.017467,292 507.895197,290.035211 507.895197,287.5 C507.895197,284.952113 510.017467,283.025352 512.755459,283.025352 Z M512.768559,284.369014 C510.960699,284.369014 509.467249,285.738028 509.467249,287.5 C509.467249,289.261972 510.973799,290.656338 512.768559,290.656338 C514.563319,290.656338 516.030568,289.261972 516.030568,287.5 C516.030568,285.738028 514.563319,284.369014 512.768559,284.369014 Z M526.838428,291.93662 L525.082969,291.93662 L523.406114,289.249296 C523.275109,289.261972 523.131004,289.261972 522.9869,289.261972 L520.812227,289.261972 L520.812227,291.93662 L519.266376,291.93662 L519.266376,283.06338 L522.9869,283.06338 C525.331878,283.06338 526.681223,284.166197 526.681223,286.092958 C526.681223,287.512676 526,288.514085 524.781659,288.970423 L526.838428,291.93662 Z M520.812227,287.91831 L522.9869,287.91831 C524.401747,287.91831 525.213974,287.335211 525.213974,286.130986 C525.213974,284.964789 524.401747,284.407042 522.9869,284.407042 L520.812227,284.407042 L520.812227,287.91831 Z M527.650655,283.06338 L535,283.06338 L535,284.407042 L532.091703,284.407042 L532.091703,291.93662 L530.545852,291.93662 L530.545852,284.407042 L527.650655,284.407042 L527.650655,283.06338 Z" id="SUPPORT-" fill="#FFFFFE"></path>
                        <path d="M480.54947,308.949224 L478.799246,308.949224 L477.127392,306.25811 C476.996778,306.270804 476.853103,306.270804 476.709428,306.270804 L474.541241,306.270804 L474.541241,308.949224 L473,308.949224 L473,300.06347 L476.709428,300.06347 C479.047412,300.06347 480.392733,301.167842 480.392733,303.09732 C480.392733,304.519041 479.713542,305.521862 478.498835,305.978843 L480.54947,308.949224 Z M474.541241,304.925247 L476.709428,304.925247 C478.120055,304.925247 478.92986,304.341326 478.92986,303.135402 C478.92986,301.96756 478.120055,301.409027 476.709428,301.409027 L474.541241,301.409027 L474.541241,304.925247 Z M482.443368,300.06347 L488.974051,300.06347 L488.974051,301.409027 L483.984609,301.409027 L483.984609,303.820874 L488.451596,303.820874 L488.451596,305.153738 L483.984609,305.153738 L483.984609,307.603667 L489.130787,307.603667 L489.130787,308.949224 L482.443368,308.949224 L482.443368,300.06347 Z M496.575765,302.234133 C495.583102,301.650212 494.590438,301.409027 493.898185,301.409027 C492.996951,301.409027 492.40919,301.739069 492.40919,302.335684 C492.40919,304.277856 497.346386,303.236953 497.333325,306.435825 C497.333325,308.022567 495.896574,309 493.885124,309 C492.448374,309 491.089992,308.428773 490.149573,307.590973 L490.815703,306.296192 C491.756121,307.133992 492.931644,307.590973 493.911247,307.590973 C494.982279,307.590973 495.622286,307.197461 495.622286,306.511989 C495.622286,304.531735 490.685089,305.636107 490.685089,302.475317 C490.685089,300.952045 492.03041,300 494.015738,300 C495.204322,300 496.366784,300.368124 497.215772,300.913963 L496.575765,302.234133 Z M499.135793,300.06347 L500.677034,300.06347 L500.677034,308.949224 L499.135793,308.949224 L499.135793,300.06347 Z M506.828938,300.06347 C509.571825,300.06347 511.557152,301.929478 511.557152,304.506347 C511.557152,307.070522 509.558763,308.949224 506.789754,308.949224 L503.080326,308.949224 L503.080326,300.06347 L506.828938,300.06347 Z M506.868122,307.603667 C508.644468,307.603667 510.00285,306.32158 510.00285,304.519041 C510.00285,302.703808 508.605283,301.409027 506.802815,301.409027 L504.621567,301.409027 L504.621567,307.603667 L506.868122,307.603667 Z M513.202884,300.06347 L519.733567,300.06347 L519.733567,301.409027 L514.744125,301.409027 L514.744125,303.820874 L519.211113,303.820874 L519.211113,305.153738 L514.744125,305.153738 L514.744125,307.603667 L519.890304,307.603667 L519.890304,308.949224 L513.202884,308.949224 L513.202884,300.06347 Z M521.77114,300.06347 L523.286259,300.06347 L528.184271,306.448519 L528.184271,300.06347 L529.699389,300.06347 L529.699389,308.949224 L528.184271,308.949224 L523.312382,302.576869 L523.312382,308.949224 L521.77114,308.949224 L521.77114,300.06347 Z M531.031649,300.06347 L538.359075,300.06347 L538.359075,301.409027 L535.459452,301.409027 L535.459452,308.949224 L533.918211,308.949224 L533.918211,301.409027 L531.031649,301.409027 L531.031649,300.06347 Z M545.242415,302.234133 C544.249751,301.650212 543.257087,301.409027 542.564835,301.409027 C541.663601,301.409027 541.075839,301.739069 541.075839,302.335684 C541.075839,304.277856 546.013035,303.236953 545.999974,306.435825 C545.999974,308.022567 544.563224,309 542.551774,309 C541.115023,309 539.756641,308.428773 538.816223,307.590973 L539.482353,306.296192 C540.422771,307.133992 541.598294,307.590973 542.577896,307.590973 C543.648928,307.590973 544.288935,307.197461 544.288935,306.511989 C544.288935,304.531735 539.351739,305.636107 539.351739,302.475317 C539.351739,300.952045 540.69706,300 542.682387,300 C543.870971,300 545.033433,300.368124 545.882422,300.913963 L545.242415,302.234133 Z" id="RESIDENTS" fill="#FFFFFE"></path>
                        <path d="M73,130.058989 L79.0953717,130.058989 L79.0953717,143.842697 L75.5876578,143.842697 L75.5876578,133.008427 L73,133.008427 L73,130.058989 Z M90.3852267,135.72191 C92.5128565,136.05618 94.0079476,137.393258 94.0079476,139.497191 C94.0079476,142.151685 91.8803179,144 88.5451145,144 C86.5899953,144 84.5582048,143.331461 83.254792,142.308989 L84.6732118,139.536517 C85.7274427,140.657303 86.9925199,141.247191 88.2767648,141.247191 C89.7526882,141.247191 90.5769051,140.617978 90.5769051,139.536517 C90.5769051,138.435393 89.7526882,137.865169 88.257597,137.865169 L85.9957924,137.865169 L85.9957924,135.938202 L89.1393174,132.851124 L83.9640019,132.851124 L83.944834,130.078652 L93.3370734,130.078652 L93.3370734,132.162921 L89.7143525,135.623596 L90.3852267,135.72191 Z M99.2407667,130 C101.540907,130 102.997662,131.61236 102.997662,134.168539 C102.997662,136.744382 101.540907,138.356742 99.2407667,138.356742 C96.9406265,138.356742 95.483871,136.744382 95.483871,134.168539 C95.483871,131.61236 96.9406265,130 99.2407667,130 Z M107.88546,130.058989 L111.086489,130.058989 L101.521739,143.842697 L98.3207106,143.842697 L107.88546,130.058989 Z M99.2407667,131.907303 C98.2440393,131.907303 97.6498364,132.752809 97.6498364,134.168539 C97.6498364,135.58427 98.2440393,136.449438 99.2407667,136.449438 C100.237494,136.449438 100.831697,135.58427 100.831697,134.168539 C100.831697,132.752809 100.237494,131.907303 99.2407667,131.907303 Z M110.243104,135.564607 C112.543245,135.564607 114,137.176966 114,139.733146 C114,142.308989 112.543245,143.921348 110.243104,143.921348 C107.942964,143.921348 106.486209,142.308989 106.486209,139.733146 C106.486209,137.176966 107.942964,135.564607 110.243104,135.564607 Z M110.243104,137.47191 C109.246377,137.47191 108.652174,138.317416 108.652174,139.733146 C108.652174,141.148876 109.246377,142.014045 110.243104,142.014045 C111.239832,142.014045 111.834035,141.148876 111.834035,139.733146 C111.834035,138.317416 111.239832,137.47191 110.243104,137.47191 Z" id="13%" fill="#FFFFFE"></path>
                        <path d="M7.95024523,161.93662 L7.07702157,159.933803 L2.47630589,159.933803 L1.60308223,161.93662 L0,161.93662 L4.02725537,153.06338 L5.60427123,153.06338 L9.59242703,161.93662 L7.95024523,161.93662 Z M3.0497662,158.602817 L6.49052807,158.602817 L4.77014714,154.660563 L3.0497662,158.602817 Z M14.5450388,153.06338 C17.2820085,153.06338 19.2630532,154.926761 19.2630532,157.5 C19.2630532,160.060563 17.2689753,161.93662 14.5059392,161.93662 L10.8045136,161.93662 L10.8045136,153.06338 L14.5450388,153.06338 Z M14.5841384,160.592958 C16.3566521,160.592958 17.7121037,159.312676 17.7121037,157.512676 C17.7121037,155.7 16.3175525,154.407042 14.5189724,154.407042 L12.3424299,154.407042 L12.3424299,160.592958 L14.5841384,160.592958 Z M20.905235,153.06338 L22.7298814,153.06338 L25.7405481,158.957746 L28.7381815,153.06338 L30.5497948,153.06338 L30.5497948,161.93662 L29.1291772,161.93662 L29.116144,155.307042 L26.2358093,161.011268 L25.2322537,161.011268 L22.351919,155.307042 L22.351919,161.93662 L20.905235,161.93662 L20.905235,153.06338 Z M32.9609347,153.06338 L34.498851,153.06338 L34.498851,161.93662 L32.9609347,161.93662 L32.9609347,153.06338 Z M36.8969578,153.06338 L38.4088077,153.06338 L43.2962535,159.439437 L43.2962535,153.06338 L44.8081034,153.06338 L44.8081034,161.93662 L43.2962535,161.93662 L38.4348741,155.573239 L38.4348741,161.93662 L36.8969578,161.93662 L36.8969578,153.06338 Z M47.2192434,153.06338 L48.7571597,153.06338 L48.7571597,161.93662 L47.2192434,161.93662 L47.2192434,153.06338 Z M56.7074049,155.230986 C55.7168826,154.647887 54.7263602,154.407042 54.0356012,154.407042 C53.1363112,154.407042 52.5498176,154.73662 52.5498176,155.332394 C52.5498176,157.271831 57.4763631,156.232394 57.4633299,159.426761 C57.4633299,161.011268 56.0296791,161.987324 54.022568,161.987324 C52.5889172,161.987324 51.2334656,161.416901 50.295076,160.580282 L50.9597686,159.287324 C51.8981582,160.123944 53.0711452,160.580282 54.0486344,160.580282 C55.1173559,160.580282 55.7559821,160.187324 55.7559821,159.502817 C55.7559821,157.525352 50.8294367,158.628169 50.8294367,155.471831 C50.8294367,153.950704 52.1718552,153 54.1528999,153 C55.3389201,153 56.4988739,153.367606 57.3460312,153.912676 L56.7074049,155.230986 Z M58.1801553,153.06338 L65.4917742,153.06338 L65.4917742,154.407042 L62.5984063,154.407042 L62.5984063,161.93662 L61.06049,161.93662 L61.06049,154.407042 L58.1801553,154.407042 L58.1801553,153.06338 Z M74.3413095,161.93662 L72.5948622,161.93662 L70.926614,159.249296 C70.7962821,159.261972 70.652917,159.261972 70.509552,159.261972 L68.3460426,159.261972 L68.3460426,161.93662 L66.8081263,161.93662 L66.8081263,153.06338 L70.509552,153.06338 C72.8424928,153.06338 74.1849112,154.166197 74.1849112,156.092958 C74.1849112,157.512676 73.5071854,158.514085 72.2950988,158.970423 L74.3413095,161.93662 Z M68.3460426,157.91831 L70.509552,157.91831 C71.9171364,157.91831 72.7251941,157.335211 72.7251941,156.130986 C72.7251941,154.964789 71.9171364,154.407042 70.509552,154.407042 L68.3460426,154.407042 L68.3460426,157.91831 Z M82.9953469,161.93662 L82.1221233,159.933803 L77.5214076,159.933803 L76.6481839,161.93662 L75.0451017,161.93662 L79.0723571,153.06338 L80.6493729,153.06338 L84.6375287,161.93662 L82.9953469,161.93662 Z M78.0948679,158.602817 L81.5356298,158.602817 L79.8152488,154.660563 L78.0948679,158.602817 Z M82.9679772,153.06338 L90.2795962,153.06338 L90.2795962,154.407042 L87.3862283,154.407042 L87.3862283,161.93662 L85.848312,161.93662 L85.848312,154.407042 L82.9679772,154.407042 L82.9679772,153.06338 Z M91.5959483,153.06338 L93.1338646,153.06338 L93.1338646,161.93662 L91.5959483,161.93662 L91.5959483,153.06338 Z M99.6113595,153.025352 C102.335296,153.025352 104.446673,154.964789 104.446673,157.5 C104.446673,160.035211 102.335296,162 99.6113595,162 C96.887423,162 94.7760464,160.035211 94.7760464,157.5 C94.7760464,154.952113 96.887423,153.025352 99.6113595,153.025352 Z M99.6243926,154.369014 C97.8258126,154.369014 96.340029,155.738028 96.340029,157.5 C96.340029,159.261972 97.8388458,160.656338 99.6243926,160.656338 C101.40994,160.656338 102.869657,159.261972 102.869657,157.5 C102.869657,155.738028 101.40994,154.369014 99.6243926,154.369014 Z M106.088854,153.06338 L107.600704,153.06338 L112.48815,159.439437 L112.48815,153.06338 L114,153.06338 L114,161.93662 L112.48815,161.93662 L107.626771,155.573239 L107.626771,161.93662 L106.088854,161.93662 L106.088854,153.06338 Z" id="ADMINISTRATION" fill="#FFFFFE"></path>
                        <path d="M73,186.059322 L79.0953717,186.059322 L79.0953717,199.920904 L75.5876578,199.920904 L75.5876578,189.025424 L73,189.025424 L73,186.059322 Z M83.7723235,186.039548 L94.4871435,186.039548 L94.4871435,188.550847 L89.426835,199.920904 L85.7274427,199.920904 L90.6344086,188.966102 L86.8775129,188.966102 L86.8775129,190.903955 L83.7723235,190.903955 L83.7723235,186.039548 Z M99.2407667,186 C101.540907,186 102.997662,187.621469 102.997662,190.19209 C102.997662,192.782486 101.540907,194.403955 99.2407667,194.403955 C96.9406265,194.403955 95.483871,192.782486 95.483871,190.19209 C95.483871,187.621469 96.9406265,186 99.2407667,186 Z M107.88546,186.059322 L111.086489,186.059322 L101.521739,199.920904 L98.3207106,199.920904 L107.88546,186.059322 Z M99.2407667,187.918079 C98.2440393,187.918079 97.6498364,188.768362 97.6498364,190.19209 C97.6498364,191.615819 98.2440393,192.485876 99.2407667,192.485876 C100.237494,192.485876 100.831697,191.615819 100.831697,190.19209 C100.831697,188.768362 100.237494,187.918079 99.2407667,187.918079 Z M110.243104,191.596045 C112.543245,191.596045 114,193.217514 114,195.788136 C114,198.378531 112.543245,200 110.243104,200 C107.942964,200 106.486209,198.378531 106.486209,195.788136 C106.486209,193.217514 107.942964,191.596045 110.243104,191.596045 Z M110.243104,193.514124 C109.246377,193.514124 108.652174,194.364407 108.652174,195.788136 C108.652174,197.211864 109.246377,198.081921 110.243104,198.081921 C111.239832,198.081921 111.834035,197.211864 111.834035,195.788136 C111.834035,194.364407 111.239832,193.514124 110.243104,193.514124 Z" id="17%" fill="#FFFFFE"></path>
                        <path d="M54,208.06338 L55.5170345,208.06338 L55.5170345,211.916901 L60.2866938,211.916901 L60.2866938,208.06338 L61.8037283,208.06338 L61.8037283,216.93662 L60.2866938,216.93662 L60.2866938,213.260563 L55.5170345,213.260563 L55.5170345,216.93662 L54,216.93662 L54,208.06338 Z M68.1932719,208.025352 C70.8802228,208.025352 72.9629312,209.964789 72.9629312,212.5 C72.9629312,215.035211 70.8802228,217 68.1932719,217 C65.506321,217 63.4236126,215.035211 63.4236126,212.5 C63.4236126,209.952113 65.506321,208.025352 68.1932719,208.025352 Z M68.2061281,209.369014 C66.4319691,209.369014 64.9663595,210.738028 64.9663595,212.5 C64.9663595,214.261972 66.4448254,215.656338 68.2061281,215.656338 C69.9674309,215.656338 71.407328,214.261972 71.407328,212.5 C71.407328,210.738028 69.9674309,209.369014 68.2061281,209.369014 Z M75.9198629,213.260563 C75.9198629,214.756338 76.8583673,215.656338 78.3368331,215.656338 C79.8024427,215.656338 80.7152346,214.769014 80.7152346,213.260563 L80.7152346,208.06338 L82.2322691,208.06338 L82.2322691,213.260563 C82.2322691,215.580282 80.7538033,217 78.3239769,217 C75.8941504,217 74.4028284,215.580282 74.4028284,213.260563 L74.4028284,208.06338 L75.9198629,208.06338 L75.9198629,213.260563 Z M89.8817227,210.230986 C88.9046497,209.647887 87.9275766,209.407042 87.2461967,209.407042 C86.3591172,209.407042 85.7805871,209.73662 85.7805871,210.332394 C85.7805871,212.271831 90.64024,211.232394 90.6273838,214.426761 C90.6273838,216.011268 89.2131991,216.987324 87.2333405,216.987324 C85.8191558,216.987324 84.4821084,216.416901 83.5564603,215.580282 L84.2121277,214.287324 C85.1377759,215.123944 86.2948361,215.580282 87.2590529,215.580282 C88.3132633,215.580282 88.9432183,215.187324 88.9432183,214.502817 C88.9432183,212.525352 84.0835655,213.628169 84.0835655,210.471831 C84.0835655,208.950704 85.4077566,208 87.3619027,208 C88.5318192,208 89.6760231,208.367606 90.5116777,208.912676 L89.8817227,210.230986 Z M92.4015427,208.06338 L93.9185772,208.06338 L93.9185772,216.93662 L92.4015427,216.93662 L92.4015427,208.06338 Z M96.2841226,208.06338 L97.7754446,208.06338 L102.596529,214.439437 L102.596529,208.06338 L104.087851,208.06338 L104.087851,216.93662 L102.596529,216.93662 L97.8011571,210.573239 L97.8011571,216.93662 L96.2841226,216.93662 L96.2841226,208.06338 Z M112.624384,215.047887 L112.624384,212.576056 L113.948575,212.576056 L113.948575,215.846479 C113.035783,216.530986 111.68588,217 110.451682,217 C107.790444,217 105.720591,215.035211 105.720591,212.5 C105.720591,209.964789 107.816156,208.025352 110.541676,208.025352 C111.827298,208.025352 113.112921,208.507042 114,209.267606 L113.138633,210.370423 C112.444397,209.73662 111.48018,209.356338 110.541676,209.356338 C108.703235,209.356338 107.263338,210.738028 107.263338,212.5 C107.263338,214.274648 108.716092,215.656338 110.554532,215.656338 C111.223055,215.656338 111.981573,215.428169 112.624384,215.047887 Z" id="HOUSING-" fill="#FFFFFE"></path>
                        <path d="M19.7165468,224.038136 C22.4359712,224.038136 24.4043165,225.90678 24.4043165,228.487288 C24.4043165,231.055085 22.4230216,232.936441 19.6776978,232.936441 L16,232.936441 L16,224.038136 L19.7165468,224.038136 Z M19.7553957,231.588983 C21.5165468,231.588983 22.8633094,230.305085 22.8633094,228.5 C22.8633094,226.682203 21.4776978,225.385593 19.6906475,225.385593 L17.5280576,225.385593 L17.5280576,231.588983 L19.7553957,231.588983 Z M26.0359712,224.038136 L32.5107914,224.038136 L32.5107914,225.385593 L27.5640288,225.385593 L27.5640288,227.800847 L31.9928058,227.800847 L31.9928058,229.135593 L27.5640288,229.135593 L27.5640288,231.588983 L32.6661871,231.588983 L32.6661871,232.936441 L26.0359712,232.936441 L26.0359712,224.038136 Z M33.3784173,224.038136 L35.0230216,224.038136 L37.8201439,231.271186 L40.6431655,224.038136 L42.2359712,224.038136 L38.571223,232.936441 L36.9913669,232.936441 L33.3784173,224.038136 Z M43.4661871,224.038136 L49.9410072,224.038136 L49.9410072,225.385593 L44.9942446,225.385593 L44.9942446,227.800847 L49.4230216,227.800847 L49.4230216,229.135593 L44.9942446,229.135593 L44.9942446,231.588983 L50.0964029,231.588983 L50.0964029,232.936441 L43.4661871,232.936441 L43.4661871,224.038136 Z M51.9611511,224.038136 L53.4892086,224.038136 L53.4892086,231.576271 L57.4129496,231.576271 L57.4129496,232.936441 L51.9611511,232.936441 L51.9611511,224.038136 Z M62.9294964,224 C65.6359712,224 67.7338129,225.944915 67.7338129,228.487288 C67.7338129,231.029661 65.6359712,233 62.9294964,233 C60.2230216,233 58.1251799,231.029661 58.1251799,228.487288 C58.1251799,225.932203 60.2230216,224 62.9294964,224 Z M62.942446,225.347458 C61.1553957,225.347458 59.6791367,226.720339 59.6791367,228.487288 C59.6791367,230.254237 61.1683453,231.652542 62.942446,231.652542 C64.7165468,231.652542 66.1669065,230.254237 66.1669065,228.487288 C66.1669065,226.720339 64.7165468,225.347458 62.942446,225.347458 Z M72.9784173,224.038136 C75.257554,224.038136 76.5654676,225.144068 76.5654676,227.076271 C76.5654676,229.084746 75.257554,230.254237 72.9784173,230.254237 L70.8935252,230.254237 L70.8935252,232.936441 L69.3654676,232.936441 L69.3654676,224.038136 L72.9784173,224.038136 Z M72.9136691,228.90678 C74.3122302,228.90678 75.1021583,228.322034 75.1021583,227.114407 C75.1021583,225.944915 74.3122302,225.385593 72.9136691,225.385593 L70.8935252,225.385593 L70.8935252,228.90678 L72.9136691,228.90678 Z M78.0805755,224.038136 L79.8935252,224.038136 L82.8848921,229.949153 L85.8633094,224.038136 L87.6633094,224.038136 L87.6633094,232.936441 L86.2517986,232.936441 L86.2388489,226.288136 L83.3769784,232.008475 L82.3798561,232.008475 L79.5179856,226.288136 L79.5179856,232.936441 L78.0805755,232.936441 L78.0805755,224.038136 Z M90.0589928,224.038136 L96.5338129,224.038136 L96.5338129,225.385593 L91.5870504,225.385593 L91.5870504,227.800847 L96.0158273,227.800847 L96.0158273,229.135593 L91.5870504,229.135593 L91.5870504,231.588983 L96.6892086,231.588983 L96.6892086,232.936441 L90.0589928,232.936441 L90.0589928,224.038136 Z M98.5539568,224.038136 L100.056115,224.038136 L104.91223,230.432203 L104.91223,224.038136 L106.414388,224.038136 L106.414388,232.936441 L104.91223,232.936441 L100.082014,226.555085 L100.082014,232.936441 L98.5539568,232.936441 L98.5539568,224.038136 Z M107.735252,224.038136 L115,224.038136 L115,225.385593 L112.12518,225.385593 L112.12518,232.936441 L110.597122,232.936441 L110.597122,225.385593 L107.735252,225.385593 L107.735252,224.038136 Z" id="DEVELOPMENT" fill="#FFFFFE"></path>
                        <path d="M94.3236041,79.5927476 C93.536802,79.0264993 92.5336294,78.7140865 91.4714467,78.7140865 C89.3274112,78.7140865 88.2848985,80.0808926 88.3242386,82.306834 C88.9733503,81.3891213 90.035533,80.8423989 91.5304569,80.8423989 C94.2055838,80.8423989 95.9365482,82.5997211 95.9365482,85.2747559 C95.9365482,88.1645746 93.8908629,90 90.8616751,90 C87.2030457,90 85,87.4030683 85,83.2050209 C85,78.8312413 87.4587563,76 91.2550761,76 C92.7893401,76 94.5006345,76.4295676 95.6414975,77.1324965 L94.3236041,79.5927476 Z M90.7633249,83.4002789 C89.4454315,83.4002789 88.6979695,84.2008368 88.6979695,85.3138075 C88.6979695,86.3096234 89.3274112,87.1882845 90.7239848,87.1882845 C91.9435279,87.1882845 92.6909898,86.5048815 92.6909898,85.2552301 C92.6909898,84.1032078 91.982868,83.4002789 90.7633249,83.4002789 Z M100.854061,76.097629 C103.214467,76.097629 104.709391,77.6987448 104.709391,80.237099 C104.709391,82.7949791 103.214467,84.3960948 100.854061,84.3960948 C98.4936548,84.3960948 96.998731,82.7949791 96.998731,80.237099 C96.998731,77.6987448 98.4936548,76.097629 100.854061,76.097629 Z M109.725254,76.1562064 L113.010152,76.1562064 L103.194797,89.8437936 L99.9098985,89.8437936 L109.725254,76.1562064 Z M100.854061,77.9916318 C99.8312183,77.9916318 99.2214467,78.8312413 99.2214467,80.237099 C99.2214467,81.6429568 99.8312183,82.5020921 100.854061,82.5020921 C101.876904,82.5020921 102.486675,81.6429568 102.486675,80.237099 C102.486675,78.8312413 101.876904,77.9916318 100.854061,77.9916318 Z M112.14467,81.623431 C114.505076,81.623431 116,83.2245467 116,85.762901 C116,88.320781 114.505076,89.9218968 112.14467,89.9218968 C109.784264,89.9218968 108.28934,88.320781 108.28934,85.762901 C108.28934,83.2245467 109.784264,81.623431 112.14467,81.623431 Z M112.14467,83.5174338 C111.121827,83.5174338 110.512056,84.3570432 110.512056,85.762901 C110.512056,87.1687587 111.121827,88.027894 112.14467,88.027894 C113.167513,88.027894 113.777284,87.1687587 113.777284,85.762901 C113.777284,84.3570432 113.167513,83.5174338 112.14467,83.5174338 Z" id="6%" fill="#FFFFFE"></path>
                        <path d="M25,98.0633803 L31.1354182,98.0633803 L31.1223641,99.4070423 L26.5403816,99.4070423 L26.5403816,101.967606 L30.6915794,101.967606 L30.6915794,103.298592 L26.5403816,103.298592 L26.5403816,106.93662 L25,106.93662 L25,98.0633803 Z M33.8637211,103.260563 C33.8637211,104.756338 34.8166691,105.656338 36.3178884,105.656338 C37.8060537,105.656338 38.7328934,104.769014 38.7328934,103.260563 L38.7328934,98.0633803 L40.273275,98.0633803 L40.273275,103.260563 C40.273275,105.580282 38.7720557,107 36.3048343,107 C33.837613,107 32.3233395,105.580282 32.3233395,103.260563 L32.3233395,98.0633803 L33.8637211,98.0633803 L33.8637211,103.260563 Z M42.4794147,98.0633803 L43.9936881,98.0633803 L48.8889686,104.439437 L48.8889686,98.0633803 L50.403242,98.0633803 L50.403242,106.93662 L48.8889686,106.93662 L44.0197963,100.573239 L44.0197963,106.93662 L42.4794147,106.93662 L42.4794147,98.0633803 Z M56.5647683,98.0633803 C59.3061254,98.0633803 61.2903457,99.9267606 61.2903457,102.5 C61.2903457,105.060563 59.2930713,106.93662 56.5256061,106.93662 L52.818247,106.93662 L52.818247,98.0633803 L56.5647683,98.0633803 Z M56.6039306,105.592958 C58.3792856,105.592958 59.7369101,104.312676 59.7369101,102.512676 C59.7369101,100.7 58.3401234,99.4070423 56.5386602,99.4070423 L54.3586286,99.4070423 L54.3586286,105.592958 L56.6039306,105.592958 Z M70.4804189,106.93662 L68.731172,106.93662 L67.0602496,104.249296 C66.9297088,104.261972 66.7861139,104.261972 66.642519,104.261972 L64.4755415,104.261972 L64.4755415,106.93662 L62.9351599,106.93662 L62.9351599,98.0633803 L66.642519,98.0633803 C68.9791995,98.0633803 70.3237699,99.1661972 70.3237699,101.092958 C70.3237699,102.512676 69.6449577,103.514085 68.4309281,103.970423 L70.4804189,106.93662 Z M64.4755415,102.91831 L66.642519,102.91831 C68.0523598,102.91831 68.8617128,102.335211 68.8617128,101.130986 C68.8617128,99.9647887 68.0523598,99.4070423 66.642519,99.4070423 L64.4755415,99.4070423 L64.4755415,102.91831 Z M79.1483288,106.93662 L78.2737054,104.933803 L73.6656147,104.933803 L72.7909912,106.93662 L71.1853393,106.93662 L75.2190504,98.0633803 L76.7985942,98.0633803 L80.793143,106.93662 L79.1483288,106.93662 Z M74.2399943,103.602817 L77.6862717,103.602817 L75.963133,99.6605634 L74.2399943,103.602817 Z M82.0071726,98.0633803 L83.5475542,98.0633803 L83.5475542,106.93662 L82.0071726,106.93662 L82.0071726,98.0633803 Z M91.5105437,100.230986 C90.5184335,99.6478873 89.5263233,99.4070423 88.834457,99.4070423 C87.9337254,99.4070423 87.3462918,99.7366197 87.3462918,100.332394 C87.3462918,102.271831 92.2807345,101.232394 92.2676804,104.426761 C92.2676804,106.011268 90.8317315,106.987324 88.821403,106.987324 C87.385454,106.987324 86.0278296,106.416901 85.0879357,105.580282 L85.7536939,104.287324 C86.6935877,105.123944 87.868455,105.580282 88.8475111,105.580282 C89.9179458,105.580282 90.5575958,105.187324 90.5575958,104.502817 C90.5575958,102.525352 85.6231531,103.628169 85.6231531,100.471831 C85.6231531,98.9507042 86.9677234,98 88.9519438,98 C90.1398652,98 91.3016784,98.3676056 92.1501937,98.9126761 L91.5105437,100.230986 Z M94.0691436,98.0633803 L95.6095252,98.0633803 L95.6095252,106.93662 L94.0691436,106.93662 L94.0691436,98.0633803 Z M98.0114761,98.0633803 L99.5257495,98.0633803 L104.42103,104.439437 L104.42103,98.0633803 L105.935303,98.0633803 L105.935303,106.93662 L104.42103,106.93662 L99.5518577,100.573239 L99.5518577,106.93662 L98.0114761,106.93662 L98.0114761,98.0633803 Z M114.603213,105.047887 L114.603213,102.576056 L115.947784,102.576056 L115.947784,105.846479 C115.020944,106.530986 113.650265,107 112.397074,107 C109.694879,107 107.593172,105.035211 107.593172,102.5 C107.593172,99.9647887 109.720987,98.0253521 112.488452,98.0253521 C113.79386,98.0253521 115.099268,98.5070423 116,99.2676056 L115.125377,100.370423 C114.420456,99.7366197 113.4414,99.356338 112.488452,99.356338 C110.621719,99.356338 109.159661,100.738028 109.159661,102.5 C109.159661,104.274648 110.634773,105.656338 112.501506,105.656338 C113.180318,105.656338 113.950509,105.428169 114.603213,105.047887 Z" id="FUNDRAISING" fill="#FFFFFE"></path>
                        <path d="M129,96 L271,96" id="Stroke-118" stroke="#FFFFFE"></path>
                        <path d="M275,95.5 C275,93.56625 273.43375,92 271.5,92 C269.56625,92 268,93.56625 268,95.5 C268,97.43375 269.56625,99 271.5,99 C273.43375,99 275,97.43375 275,95.5 Z" id="Fill-119" fill="#FFFFFE"></path>
                        <path d="M130,147 L225,147" id="Stroke-121" stroke="#FFFFFE"></path>
                        <path d="M224.5,150 C226.43375,150 228,148.43375 228,146.5 C228,144.56625 226.43375,143 224.5,143 C222.56625,143 221,144.56625 221,146.5 C221,148.43375 222.56625,150 224.5,150" id="Fill-122" fill="#FFFFFE"></path>
                        <path d="M129,223 L224,223" id="Stroke-124" stroke="#FFFFFE"></path>
                        <path d="M223.5,227 C225.43375,227 227,225.43375 227,223.5 C227,221.56625 225.43375,220 223.5,220 C221.56625,220 220,221.56625 220,223.5 C220,225.43375 221.56625,227 223.5,227" id="Fill-125" fill="#FFFFFE"></path>
                        <path d="M455,167 L406,167" id="Stroke-127" stroke="#FFFFFE"></path>
                        <path d="M406.5,171 C408.43375,171 410,169.43375 410,167.5 C410,165.56625 408.43375,164 406.5,164 C404.56625,164 403,165.56625 403,167.5 C403,169.43375 404.56625,171 406.5,171" id="Fill-128" fill="#FFFFFE"></path>
                        <path d="M455,262 L308,262" id="Stroke-130" stroke="#FFFFFE"></path>
                        <path d="M308.5,266 C310.43375,266 312,264.43375 312,262.5 C312,260.56625 310.43375,259 308.5,259 C306.56625,259 305,260.56625 305,262.5 C305,264.43375 306.56625,266 308.5,266" id="Fill-131" fill="#FFFFFE"></path>
                    </g>
                </g>
            </g>
        </g>
    </g>
</svg>